<svg version="1.1" id="Layer_1" xmlns="http://www.w3.org/2000/svg" xmlns:xlink="http://www.w3.org/1999/xlink" x="0px" y="0px"
	 width="100%" viewBox="0 0 192 194" enable-background="new 0 0 192 194" xml:space="preserve">
<path fill="#0753E8" opacity="1.000000" stroke="none" 
	d="
M117.000000,195.000000 
	C103.979103,195.000000 90.958214,195.000000 77.706352,194.642883 
	C77.129707,193.935181 76.833977,193.354340 76.431183,193.266968 
	C53.809299,188.358932 35.408974,176.744507 21.089993,158.586533 
	C12.182206,147.290527 6.341679,134.552887 2.951010,120.617371 
	C2.714247,119.644287 1.669188,118.867867 1.000001,118.000000 
	C1.000000,104.979103 1.000000,91.958214 1.364088,78.705338 
	C2.143838,77.807953 2.797265,77.189804 2.940317,76.470207 
	C6.329611,59.420956 14.144859,44.588444 25.764376,31.810125 
	C39.216747,17.016161 55.767994,7.356471 75.332008,2.924874 
	C75.999115,2.773762 76.448914,1.663300 77.000000,1.000000 
	C90.020897,1.000000 103.041786,1.000000 116.271622,1.349076 
	C117.309235,2.132525 118.091553,2.758618 118.973694,2.971939 
	C129.014694,5.400096 138.469849,9.121759 147.283356,14.628869 
	C170.657608,29.234234 185.386505,49.822422 191.131897,76.823532 
	C191.238693,77.325470 192.354813,77.612633 193.000000,78.000000 
	C193.000000,91.354225 193.000000,104.708458 192.655518,118.266876 
	C191.873871,119.297295 191.230438,120.076591 191.030197,120.956718 
	C187.526230,136.357620 180.640732,150.221146 170.307892,161.981964 
	C156.376221,177.838959 139.272675,188.964951 118.167442,193.133301 
	C117.674622,193.230606 117.384613,194.354782 117.000000,195.000000 
M48.000000,149.000000 
	C48.000000,149.000000 47.954056,149.044312 47.946388,148.392899 
	C47.281082,147.943726 46.615772,147.494568 45.555035,146.592239 
	C44.925049,145.820801 44.295063,145.049377 43.717888,143.630081 
	C43.049801,143.211334 42.381714,142.792603 41.653946,142.331772 
	C41.653946,142.331772 41.627426,142.263733 41.708431,141.563309 
	C40.175869,139.681305 38.643307,137.799286 36.964256,135.536804 
	C36.964256,135.536804 36.840649,135.148300 36.914856,134.433929 
	C35.651005,132.592361 34.387154,130.750778 32.943962,128.366714 
	C32.858223,127.995697 32.772484,127.624672 32.865532,126.586594 
	C32.257908,125.713554 31.650286,124.840508 30.903133,123.311287 
	C30.786451,122.650688 30.669769,121.990097 30.758060,120.629028 
	C30.109095,119.420280 29.460129,118.211533 28.686863,116.352753 
	C28.589403,115.698166 28.491943,115.043579 28.683144,113.619751 
	C28.067684,111.413551 27.452223,109.207359 26.757492,106.067902 
	C26.763239,100.380478 26.768986,94.693062 27.259876,88.418716 
	C27.635916,85.811653 28.011955,83.204590 28.493351,79.948738 
	C28.600847,79.300339 28.708342,78.651932 29.393364,77.572067 
	C29.787455,76.273087 30.181547,74.974113 30.679186,73.018364 
	C30.837120,72.373711 30.995052,71.729050 31.800432,70.841080 
	C32.119640,69.807861 32.438847,68.774643 32.841846,67.180901 
	C32.961208,66.823212 33.080566,66.465523 33.831566,65.949661 
	C34.146896,65.217293 34.462227,64.484917 34.864693,63.372868 
	C34.864693,63.372868 35.046398,63.028290 35.685848,62.808487 
	C36.087337,61.828869 36.488827,60.849247 37.002869,59.472385 
	C37.002869,59.472385 37.209347,59.114834 37.886387,59.000435 
	C38.490654,57.892189 39.094925,56.783947 39.933624,55.193302 
	C40.291622,54.797337 40.649616,54.401371 41.685410,53.909386 
	C42.370068,52.843502 43.054726,51.777615 44.055046,50.134239 
	C47.365719,47.086246 50.676392,44.038258 54.617241,41.005207 
	C55.122765,40.419064 55.628288,39.832924 56.446007,38.995033 
	C56.446007,38.995033 56.816730,38.842045 57.549149,38.900768 
	C60.393635,36.983101 63.238121,35.065434 66.576530,32.912537 
	C66.924492,32.806114 67.272446,32.699692 68.283302,32.846420 
	C69.600365,32.096478 70.917419,31.346535 72.812538,30.383945 
	C73.213089,30.296097 73.613632,30.208248 74.475838,30.472637 
	C75.654411,29.901003 76.832993,29.329369 78.616020,28.566051 
	C79.244537,28.487225 79.873055,28.408398 81.274605,28.657211 
	C83.593758,27.969732 85.912918,27.282253 89.128334,26.460535 
	C94.345894,26.493511 99.563454,26.526489 105.195702,27.121080 
	C107.962906,27.535967 110.730110,27.950855 114.131104,28.410494 
	C114.750031,28.545618 115.368958,28.680742 116.252670,29.379353 
	C117.493713,29.663919 118.734756,29.948486 120.578972,30.330652 
	C120.969772,30.442991 121.360573,30.555330 122.041199,31.248732 
	C125.781441,34.253475 127.863472,33.094391 128.786926,27.987011 
	C129.560287,26.678211 130.333649,25.369413 131.707962,23.876102 
	C131.582245,22.618946 131.790970,20.434048 131.278656,20.249371 
	C126.596657,18.561647 121.789314,17.221697 116.266335,15.735881 
	C115.274483,15.577147 114.282623,15.418414 112.937569,14.731212 
	C110.960663,14.436850 108.983757,14.142488 106.069801,13.810158 
	C99.707230,13.803739 93.344658,13.797320 86.405052,13.394561 
	C83.852570,14.086460 81.300079,14.778358 78.167152,15.618192 
	C77.772491,15.676321 77.377823,15.734450 76.405952,15.419037 
	C73.725311,16.056698 70.774155,16.183228 68.416435,17.431046 
	C62.174526,20.734571 56.189384,24.523256 49.605721,28.508947 
	C48.387871,29.327038 47.170017,30.145128 45.332802,31.012747 
	C44.854874,31.627445 44.376945,32.242142 43.653107,33.155621 
	C43.653107,33.155621 43.352486,33.399273 42.652889,33.270443 
	C40.769459,35.181202 38.886024,37.091961 37.000000,39.000000 
	C37.000000,39.000000 37.002739,39.002522 36.359009,39.101242 
	C35.967155,39.797680 35.575306,40.494114 34.892349,41.716988 
	C34.206684,42.441845 33.521015,43.166702 32.239647,44.055847 
	C31.844666,44.724468 31.449684,45.393093 30.900410,46.444241 
	C30.900410,46.444241 30.718273,46.814327 30.102818,46.942963 
	C29.726007,47.618481 29.349197,48.293995 28.713062,49.554905 
	C28.030045,50.633221 27.347029,51.711533 26.022699,52.981228 
	C24.082804,56.715137 22.142906,60.449043 20.081074,64.745598 
	C19.985439,65.117256 19.889805,65.488922 19.153172,66.135315 
	C18.148849,69.466705 17.144527,72.798103 16.043879,76.863052 
	C15.917087,77.841263 15.790295,78.819481 15.071321,80.155342 
	C14.678537,83.103195 14.285753,86.051048 13.869038,89.934074 
	C13.876116,95.290993 13.883195,100.647911 13.495163,106.603798 
	C14.212917,109.472519 14.930673,112.341232 15.743785,115.906029 
	C15.821381,116.604309 15.898976,117.302589 15.678810,118.559479 
	C17.038141,122.093391 18.397470,125.627312 19.922289,129.711990 
	C20.011236,130.084869 20.100183,130.457733 20.017839,131.572937 
	C22.212784,135.129700 24.407726,138.686447 26.851572,142.731171 
	C27.023710,143.053238 27.195847,143.375305 27.272150,144.328674 
	C27.811947,144.913055 28.351744,145.497437 29.255863,146.567459 
	C29.843817,147.371323 30.431770,148.175201 31.011703,149.605560 
	C31.622057,150.109100 32.232410,150.612656 33.052532,151.441910 
	C33.052532,151.441910 33.242062,151.779800 33.228111,152.462601 
	C34.478466,153.647995 35.728821,154.833389 37.000137,156.000000 
	C37.000137,156.000000 36.980652,156.020630 36.971539,156.715775 
	C39.963116,159.158997 42.954697,161.602234 46.457546,164.384201 
	C47.236546,165.029205 48.015545,165.674210 49.022858,166.935089 
	C55.160164,170.420212 61.176689,174.149414 67.492119,177.274582 
	C70.150024,178.589844 73.439232,178.629379 77.085213,179.327362 
	C77.723007,179.444382 78.360802,179.561386 79.530228,180.241318 
	C82.477852,180.643463 85.425468,181.045593 89.260788,181.454681 
	C94.712357,181.432922 100.163918,181.411163 106.414764,181.753174 
	C108.941689,181.098145 111.468605,180.443115 114.661392,179.657852 
	C115.776169,179.468094 116.890938,179.278336 118.541908,179.439560 
	C122.414055,178.193741 126.466141,177.326218 130.107101,175.594360 
	C133.659927,173.904419 136.792694,171.331329 140.448441,168.945999 
	C140.448441,168.945999 140.806305,168.783051 141.436310,168.889648 
	C142.029709,168.372375 142.623093,167.855118 143.761047,166.978363 
	C145.161240,165.973709 146.561432,164.969055 148.662704,163.932556 
	C150.373795,162.229584 152.084885,160.526611 153.889374,158.874008 
	C153.889374,158.874008 153.823502,158.790787 154.510971,158.776062 
	C155.271378,157.783875 156.031784,156.791672 157.166931,155.368881 
	C157.690567,154.816895 158.214203,154.264893 159.396118,153.723267 
	C159.802277,153.040573 160.208420,152.357880 160.813675,151.345322 
	C160.813675,151.345322 161.046600,151.038391 161.687027,150.927124 
	C162.053833,150.220596 162.420639,149.514084 163.050385,148.266144 
	C163.681686,147.494553 164.312973,146.722961 165.584473,145.744644 
	C166.023849,144.798233 166.463211,143.851837 167.030136,142.514755 
	C167.030136,142.514755 167.195770,142.138657 167.842209,142.015213 
	C168.173035,141.292480 168.503845,140.569763 168.940277,139.451691 
	C168.940277,139.451691 169.098297,139.074219 169.705185,138.871704 
	C170.012695,138.145203 170.320206,137.418701 170.768250,136.146179 
	C170.873886,135.785629 170.979538,135.425095 171.747742,134.861588 
	C173.667755,129.789490 175.587753,124.717400 177.569275,118.980591 
	C177.671051,118.321083 177.772842,117.661575 178.437408,116.589386 
	C178.763199,114.403076 179.088989,112.216759 179.472610,109.160789 
	C179.380707,108.010925 179.288788,106.861061 178.828201,105.062492 
	C174.938492,105.431870 171.048782,105.801254 167.029648,106.891068 
	C166.904709,107.858940 166.779755,108.826805 166.083221,110.136864 
	C165.689407,112.424805 165.295609,114.712738 164.836884,117.600121 
	C164.773331,117.996986 164.709793,118.393845 164.101425,119.011566 
	C163.687775,120.339874 163.274139,121.668190 162.762985,123.577217 
	C162.665344,123.957291 162.567703,124.337364 161.858704,124.962875 
	C160.735001,127.432953 159.611282,129.903030 158.296387,132.886230 
	C158.141418,133.216476 157.986465,133.546707 157.173615,134.013916 
	C156.154068,135.714157 155.134506,137.414398 153.953156,139.483704 
	C153.953156,139.483704 153.775986,139.845657 153.163086,139.998871 
	C152.817047,140.706726 152.471008,141.414581 151.831360,142.650024 
	C151.172806,143.397186 150.514236,144.144363 149.231873,144.986053 
	C148.805481,145.639984 148.379105,146.293930 147.998978,146.995590 
	C147.998978,146.995590 147.947983,146.954834 147.281006,147.027328 
	C146.162598,148.322800 145.044189,149.618271 143.997284,150.990768 
	C143.997284,150.990768 143.918533,150.922455 143.242767,150.935608 
	C142.572144,151.688416 141.901535,152.441238 141.175308,153.189148 
	C141.175308,153.189148 141.198257,153.240021 140.542511,153.225723 
	C139.632065,154.056442 138.721619,154.887146 137.461761,155.915451 
	C137.461761,155.915451 137.111954,156.112350 136.460800,156.079941 
	C135.956741,156.698730 135.452682,157.317520 134.380386,158.267151 
	C133.040436,159.012283 131.700500,159.757416 129.649734,160.299042 
	C127.001564,161.672760 124.353386,163.046494 121.134796,164.569275 
	C120.752914,164.662064 120.371040,164.754852 119.542671,164.518661 
	C118.274231,165.186646 117.005783,165.854614 115.159744,166.643692 
	C114.769867,166.696320 114.379997,166.748947 113.400177,166.463242 
	C110.838646,167.124237 108.277115,167.785233 104.820580,168.540543 
	C99.303535,168.521164 93.786491,168.501770 87.867081,167.945908 
	C85.245628,167.573334 82.624168,167.200760 79.415581,166.752914 
	C79.027176,166.683853 78.638771,166.614792 77.892914,165.958328 
	C76.138184,165.483887 74.383453,165.009460 71.983864,164.431808 
	C71.365158,164.227600 70.746452,164.023376 69.913834,163.173843 
	C67.814438,162.290680 65.715034,161.407516 63.108505,160.314209 
	C62.780880,160.151184 62.453255,159.988144 61.956009,159.176880 
	C60.228210,158.199875 58.500412,157.222885 56.437916,156.054382 
	C56.437916,156.054382 56.125343,155.828583 55.990849,155.201889 
	C55.261154,154.871765 54.531456,154.541656 53.258759,153.896271 
	C52.170780,152.932755 51.082806,151.969238 49.952324,150.370316 
	C49.286304,149.928421 48.620281,149.486511 48.000000,149.000000 
M131.810883,141.155579 
	C132.265869,140.477173 132.720856,139.798767 133.789597,138.885437 
	C135.593979,136.998703 137.398376,135.111954 139.862579,133.099869 
	C141.083206,131.319702 142.303833,129.539536 143.791733,127.261955 
	C143.921432,126.908768 144.051147,126.555580 144.860596,126.031105 
	C146.469116,121.967575 148.077621,117.904045 149.917328,113.208504 
	C150.531296,105.840294 151.145264,98.472084 152.033035,90.307777 
	C151.326904,87.876999 150.620758,85.446220 149.903946,82.381531 
	C149.814133,81.969475 149.724335,81.557411 149.833130,80.483795 
	C149.284775,79.579407 148.736420,78.675018 148.106659,77.104263 
	C147.930252,76.457863 147.753845,75.811462 147.699783,74.455490 
	C144.172089,69.584755 140.644394,64.714020 136.846039,59.251289 
	C134.897018,57.477634 132.948013,55.703976 130.931671,53.415668 
	C130.202225,53.792465 129.472794,54.169262 128.737350,54.701511 
	C128.737350,54.701511 128.617722,54.800961 127.974571,54.971611 
	C121.318733,62.751743 121.819580,65.653816 131.000076,71.450661 
	C131.000076,71.450661 131.131241,71.836166 131.079208,72.458069 
	C131.632599,73.013359 132.185974,73.568649 132.930695,74.522995 
	C132.930695,74.522995 133.035461,74.952965 132.961395,75.704407 
	C135.109131,81.810272 137.256866,87.916145 139.559891,94.880928 
	C139.508423,96.910484 139.456940,98.940048 138.855331,101.512199 
	C136.291962,108.742157 133.728592,115.972107 131.069580,123.587769 
	C131.069580,123.587769 130.853577,123.921310 130.190323,124.027718 
	C128.097794,126.311806 126.005272,128.595901 123.960075,130.959763 
	C123.960075,130.959763 123.880325,130.912399 123.207382,130.921616 
	C122.111069,131.898956 121.014755,132.876297 119.547371,134.250336 
	C119.210495,134.374603 118.873619,134.498871 117.790512,134.442291 
	C101.393456,141.937241 85.646584,141.475815 70.718292,130.644775 
	C70.231216,130.291382 69.469101,130.317093 69.000000,130.000000 
	C69.000000,130.000000 68.836296,130.167236 68.798119,129.496841 
	C67.487419,128.371750 66.176727,127.246666 65.001854,126.009827 
	C65.001854,126.009827 64.870514,126.128815 64.880257,125.478745 
	C64.239746,124.994614 63.599228,124.510475 62.736073,123.732399 
	C62.736073,123.732399 62.638523,123.376785 62.754040,122.637444 
	C61.390419,119.796906 59.976143,116.979301 58.676334,114.109856 
	C57.143719,110.726471 55.710182,107.298187 54.107971,103.262375 
	C54.113087,102.836983 54.118198,102.411583 54.556259,101.311684 
	C55.393570,95.786438 55.774895,90.139381 57.208298,84.773369 
	C58.417789,80.245552 60.848194,76.043877 62.864166,71.344078 
	C62.864166,71.344078 63.112034,71.061974 63.760361,70.985603 
	C64.135796,70.285400 64.511238,69.585190 65.002663,68.987976 
	C65.002663,68.987976 64.882034,68.893166 65.517883,68.779686 
	C65.928101,68.110580 66.338326,67.441483 66.975555,66.915634 
	C66.975555,66.915634 66.760292,66.753967 67.353325,66.705101 
	C67.257072,65.792122 67.160820,64.879135 66.911613,63.587540 
	C66.911613,63.587540 66.850510,63.183796 66.923340,62.540695 
	C66.341415,61.996964 65.759491,61.453232 64.960258,60.571068 
	C64.960258,60.571068 64.852280,60.183632 64.891350,59.458744 
	C61.509789,53.808846 59.813492,53.683006 56.942616,58.942936 
	C56.942616,58.942936 56.866001,58.904968 56.183914,58.986385 
	C54.857578,60.741489 53.531239,62.496597 52.090206,64.617912 
	C52.090206,64.617912 51.862576,64.926865 51.181179,65.032944 
	C50.131130,67.035675 49.081078,69.038399 47.947445,71.480934 
	C47.947445,71.480934 47.763828,71.889236 47.126335,72.134399 
	C43.507175,78.425468 40.415390,84.863007 41.525776,93.085518 
	C41.465420,93.712700 41.405064,94.339890 40.855843,95.470421 
	C41.014599,96.988396 41.173359,98.506378 41.450405,100.657593 
	C41.443569,101.299461 41.436729,101.941338 41.095562,103.446083 
	C41.396202,110.649734 42.962563,117.426582 47.937939,123.645424 
	C48.035549,124.006256 48.133160,124.367088 48.145725,125.443375 
	C49.381786,126.988098 50.617847,128.532822 52.082863,130.391861 
	C52.082863,130.391861 52.194008,130.764481 52.127907,131.418732 
	C52.727501,131.963531 53.327099,132.508347 54.001976,133.023529 
	C54.001976,133.023529 53.940495,133.076630 53.919456,133.732712 
	C54.867069,134.528534 55.814682,135.324356 57.196224,136.444290 
	C57.549366,136.849548 57.902512,137.254822 58.308846,138.354034 
	C61.683945,140.761276 65.059036,143.168503 69.008995,145.808304 
	C69.929382,146.262711 70.849777,146.717133 71.969925,147.858276 
	C75.706497,149.047867 79.443077,150.237442 83.772560,151.657867 
	C84.172844,151.796036 84.573128,151.934219 85.241264,152.726166 
	C86.310242,153.001678 87.379227,153.277176 89.318985,153.590179 
	C94.711380,153.548325 100.103783,153.506470 106.143440,153.636566 
	C106.782310,153.151230 107.421181,152.665894 108.781952,151.935883 
	C110.274162,151.690811 111.766373,151.445740 113.912529,151.465317 
	C114.615341,150.995377 115.318153,150.525436 116.413307,149.744720 
	C116.551926,149.651871 116.690536,149.559006 117.527893,149.659988 
	C121.129669,147.524734 124.731445,145.389496 128.687607,143.143036 
	C128.687607,143.143036 128.941544,142.871979 129.575974,142.913208 
	C130.105194,142.327850 130.634415,141.742508 131.013107,141.007278 
	C131.013107,141.007278 131.152832,141.166946 131.810883,141.155579 
M114.454895,53.491005 
	C119.266724,45.649330 118.638054,43.949924 110.179260,43.353222 
	C109.778809,43.315262 109.378365,43.277302 108.386002,42.748314 
	C100.554466,40.645718 92.748787,39.812229 84.419220,43.245693 
	C84.021210,43.329418 83.623207,43.413143 82.531853,43.226948 
	C80.709908,43.859787 78.887962,44.492630 76.327759,45.072777 
	C73.740921,45.495068 71.103867,46.932095 72.732918,49.523499 
	C74.876068,52.932713 78.188583,57.845425 81.200340,57.993176 
	C87.052658,58.280289 93.045753,55.698017 99.593269,54.252304 
	C100.000557,54.290169 100.407845,54.328030 101.156960,54.980640 
	C103.962814,55.705715 106.756271,56.891182 109.579597,56.967148 
	C111.053978,57.006813 112.580879,55.094547 114.454895,53.491005 
M142.387848,30.905094 
	C136.870178,39.953747 137.755844,38.909176 144.087311,44.584126 
	C156.722855,55.909485 164.455704,70.138290 166.783798,87.085007 
	C167.470261,92.081894 168.739288,92.692268 176.315216,92.067451 
	C181.130203,91.670341 179.839874,88.219894 179.448517,85.794342 
	C175.837357,63.413944 165.222534,45.003796 147.480179,30.843712 
	C146.476089,30.042366 144.444366,30.528652 142.387848,30.905094 
M111.815094,99.498245 
	C111.818481,103.817238 111.986397,108.144020 111.782249,112.453178 
	C111.544449,117.472664 114.930626,116.955544 118.124023,117.010963 
	C121.449860,117.068680 124.455910,117.208138 124.352562,112.320129 
	C124.141937,102.357635 124.200600,92.386620 124.320068,82.421173 
	C124.381859,77.267433 120.769180,78.222679 117.742851,78.134903 
	C114.643929,78.045029 111.606079,77.903618 111.779839,82.553955 
	C111.978172,87.862083 111.818901,93.183578 111.815094,99.498245 
M90.574669,111.979393 
	C90.170837,118.429451 94.940704,116.677078 98.465240,117.006271 
	C102.382965,117.372169 103.198135,115.282593 103.130295,111.876663 
	C102.981789,104.421234 102.860535,96.951622 103.164581,89.505623 
	C103.367401,84.538574 100.345734,84.799072 97.054398,84.810074 
	C93.622742,84.821541 90.308121,84.472122 90.504051,89.699448 
	C90.770805,96.816338 90.569511,103.950775 90.574669,111.979393 
M81.648003,96.356880 
	C79.051178,95.822174 76.475113,95.119720 73.852287,94.795128 
	C70.556046,94.387199 68.985352,95.902733 69.115456,99.387695 
	C69.288216,104.015190 69.015785,108.660172 69.214294,113.285629 
	C69.450729,118.795158 73.844795,116.669533 76.741966,117.009277 
	C79.544167,117.337875 82.101410,117.112724 81.959908,113.085182 
	C81.774063,107.795937 81.865814,102.496941 81.648003,96.356880 
z"/>
<path fill="#000000" opacity="1.000000" stroke="none" 
	d="
M76.531342,1.000000 
	C76.448914,1.663300 75.999115,2.773762 75.332008,2.924874 
	C55.767994,7.356471 39.216747,17.016161 25.764376,31.810125 
	C14.144859,44.588444 6.329611,59.420956 2.940317,76.470207 
	C2.797265,77.189804 2.143838,77.807953 1.364088,78.236679 
	C1.000000,52.406937 1.000000,26.813871 1.000000,1.000000 
	C26.020462,1.000000 51.041573,1.000000 76.531342,1.000000 
z"/>
<path fill="#000000" opacity="1.000000" stroke="none" 
	d="
M193.000000,77.531342 
	C192.354813,77.612633 191.238693,77.325470 191.131897,76.823532 
	C185.386505,49.822422 170.657608,29.234234 147.283356,14.628869 
	C138.469849,9.121759 129.014694,5.400096 118.973694,2.971939 
	C118.091553,2.758618 117.309235,2.132525 116.740280,1.349076 
	C142.260681,1.000000 167.521378,1.000000 193.000000,1.000000 
	C193.000000,26.353811 193.000000,51.708248 193.000000,77.531342 
z"/>
<path fill="#000000" opacity="1.000000" stroke="none" 
	d="
M1.000001,118.468658 
	C1.669188,118.867867 2.714247,119.644287 2.951010,120.617371 
	C6.341679,134.552887 12.182206,147.290527 21.089993,158.586533 
	C35.408974,176.744507 53.809299,188.358932 76.431183,193.266968 
	C76.833977,193.354340 77.129707,193.935181 77.237694,194.642883 
	C51.739307,195.000000 26.478619,195.000000 1.000000,195.000000 
	C1.000000,169.646194 1.000000,144.291748 1.000001,118.468658 
z"/>
<path fill="#000000" opacity="1.000000" stroke="none" 
	d="
M117.468658,195.000000 
	C117.384613,194.354782 117.674622,193.230606 118.167442,193.133301 
	C139.272675,188.964951 156.376221,177.838959 170.307892,161.981964 
	C180.640732,150.221146 187.526230,136.357620 191.030197,120.956718 
	C191.230438,120.076591 191.873871,119.297295 192.655518,118.735535 
	C193.000000,144.260208 193.000000,169.520416 193.000000,195.000000 
	C167.979538,195.000000 142.958420,195.000000 117.468658,195.000000 
z"/>
<path fill="#EDF2FC" opacity="1.000000" stroke="none" 
	d="
M169.098297,139.074219 
	C169.098297,139.074219 168.940277,139.451691 168.584839,139.739166 
	C167.884842,140.730637 167.540298,141.434647 167.195770,142.138657 
	C167.195770,142.138657 167.030136,142.514755 166.653442,142.819946 
	C165.832581,144.067215 165.388428,145.009293 164.944260,145.951370 
	C164.312973,146.722961 163.681686,147.494553 162.620911,148.626953 
	C161.809830,149.671295 161.428207,150.354843 161.046600,151.038391 
	C161.046600,151.038391 160.813675,151.345322 160.403107,151.546463 
	C159.574295,152.402710 159.156067,153.057800 158.737839,153.712906 
	C158.214203,154.264893 157.690567,154.816895 156.654999,155.619049 
	C155.369888,156.843063 154.596695,157.816925 153.823502,158.790787 
	C153.823502,158.790787 153.889374,158.874008 153.499283,158.869705 
	C151.393341,160.565079 149.677475,162.264740 147.961624,163.964417 
	C146.561432,164.969055 145.161240,165.973709 143.178192,167.090881 
	C141.998993,167.729950 141.402649,168.256500 140.806305,168.783051 
	C140.806305,168.783051 140.448441,168.945999 139.921005,169.021301 
	C135.392395,171.088898 131.422806,173.148224 127.379799,175.051636 
	C124.303444,176.499939 121.133835,177.750183 118.005714,179.088562 
	C116.890938,179.278336 115.776169,179.468094 114.039337,179.552948 
	C110.816681,180.095154 108.216080,180.742264 105.615486,181.389389 
	C100.163918,181.411163 94.712357,181.432922 88.591148,181.185455 
	C84.947205,180.503601 81.972908,180.090988 78.998604,179.678375 
	C78.360802,179.561386 77.723007,179.444382 76.558884,179.017578 
	C73.426460,177.718460 70.746513,176.886993 68.228653,175.709061 
	C61.712479,172.660629 55.267784,169.459427 48.794544,166.319229 
	C48.015545,165.674210 47.236546,165.029205 46.158039,163.881500 
	C42.899239,160.926086 39.939945,158.473358 36.980652,156.020630 
	C36.980652,156.020630 37.000137,156.000000 36.983910,155.671707 
	C35.725811,154.155548 34.483936,152.967667 33.242062,151.779800 
	C33.242062,151.779800 33.052532,151.441910 32.957485,150.963547 
	C32.248199,149.983139 31.633963,149.481110 31.019726,148.979065 
	C30.431770,148.175201 29.843817,147.371323 29.115021,146.004684 
	C28.438780,144.860397 27.903383,144.278885 27.367985,143.697372 
	C27.195847,143.375305 27.023710,143.053238 26.781292,142.130356 
	C24.537050,137.963226 22.363089,134.396927 20.189129,130.830612 
	C20.100183,130.457733 20.011236,130.084869 19.921066,129.053864 
	C18.605419,124.930779 17.290995,121.465828 15.976572,118.000870 
	C15.898976,117.302589 15.821381,116.604309 15.815233,115.147507 
	C15.221212,111.594261 14.555742,108.799545 13.890273,106.004829 
	C13.883195,100.647911 13.876116,95.290993 14.134146,89.187828 
	C14.820671,85.560287 15.242087,82.678986 15.663504,79.797691 
	C15.790295,78.819481 15.917087,77.841263 16.416182,76.348022 
	C17.790380,72.508858 18.792276,69.184723 19.794170,65.860580 
	C19.889805,65.488922 19.985439,65.117256 20.468884,64.365417 
	C22.792465,60.253445 24.728239,56.521645 26.664013,52.789848 
	C27.347029,51.711533 28.030045,50.633221 29.150110,49.195168 
	C29.964197,48.161732 30.341236,47.488029 30.718273,46.814327 
	C30.718273,46.814327 30.900410,46.444241 31.291218,46.189949 
	C32.066467,45.254288 32.450909,44.572926 32.835350,43.891560 
	C33.521015,43.166702 34.206684,42.441845 35.358154,41.408279 
	C36.216888,40.400555 36.609814,39.701538 37.002739,39.002522 
	C37.002739,39.002522 37.000000,39.000000 37.339760,38.971165 
	C39.570511,37.094646 41.461498,35.246960 43.352486,33.399273 
	C43.352486,33.399273 43.653107,33.155621 44.094910,32.995216 
	C45.008530,32.210949 45.480350,31.587082 45.952168,30.963219 
	C47.170017,30.145128 48.387871,29.327038 50.216034,28.328880 
	C59.545288,24.030069 68.264221,19.911325 76.983162,15.792581 
	C77.377823,15.734450 77.772491,15.676321 78.849319,15.691698 
	C82.015022,15.107103 84.498550,14.449001 86.982086,13.790901 
	C93.344658,13.797320 99.707230,13.803739 106.788528,14.100578 
	C109.435097,14.680560 111.362938,14.970120 113.290771,15.259682 
	C114.282623,15.418414 115.274483,15.577147 116.887604,16.031445 
	C119.229927,16.918545 121.054604,17.311539 122.649879,18.144094 
	C125.709717,19.740984 130.167542,19.424189 131.106995,24.060614 
	C130.333649,25.369413 129.560287,26.678211 128.385864,28.416580 
	C125.906990,29.453320 123.829185,30.060492 121.751373,30.667667 
	C121.360573,30.555330 120.969772,30.442991 120.153229,30.006287 
	C118.480949,29.393234 117.234413,29.104549 115.987885,28.815865 
	C115.368958,28.680742 114.750031,28.545618 113.568787,28.126495 
	C110.264656,27.414822 107.522835,26.987144 104.781013,26.559467 
	C99.563454,26.526489 94.345894,26.493511 88.311913,26.376186 
	C85.164185,26.971083 82.832878,27.650328 80.501572,28.329571 
	C79.873055,28.408398 79.244537,28.487225 78.060570,28.525620 
	C76.341476,29.030260 75.177826,29.575331 74.014183,30.120399 
	C73.613632,30.208248 73.213089,30.296097 72.200073,30.369394 
	C70.265205,31.100986 68.942810,31.847130 67.620407,32.593273 
	C67.272446,32.699692 66.924492,32.806114 65.970215,32.981056 
	C62.514847,34.980396 59.665787,36.911221 56.816730,38.842045 
	C56.816730,38.842045 56.446007,38.995033 55.966469,39.087101 
	C54.986977,39.782867 54.487019,40.386566 53.987061,40.990265 
	C50.676392,44.038258 47.365719,47.086246 43.567871,50.490273 
	C42.389668,51.899342 41.698639,52.952374 41.007610,54.005409 
	C40.649616,54.401371 40.291622,54.797337 39.502739,55.532009 
	C38.451019,56.952091 37.830185,58.033463 37.209347,59.114834 
	C37.209347,59.114834 37.002869,59.472385 36.625393,59.777969 
	C35.847412,61.065132 35.446907,62.046711 35.046402,63.028290 
	C35.046398,63.028290 34.864693,63.372868 34.506725,63.643345 
	C33.832481,64.645157 33.516205,65.376495 33.199928,66.107834 
	C33.080566,66.465523 32.961208,66.823212 32.492760,67.605652 
	C31.813440,69.048401 31.483213,70.066399 31.152985,71.084396 
	C30.995052,71.729050 30.837120,72.373711 30.335518,73.427956 
	C29.599846,75.226212 29.207842,76.614868 28.815838,78.003532 
	C28.708342,78.651932 28.600847,79.300339 28.154686,80.468552 
	C27.468925,83.660782 27.121830,86.333214 26.774734,89.005638 
	C26.768986,94.693062 26.763239,100.380478 26.627117,106.815811 
	C27.129324,109.838806 27.761904,112.113899 28.394485,114.388992 
	C28.491943,115.043579 28.589403,115.698166 28.608541,116.925758 
	C29.204508,118.775673 29.878796,120.052589 30.553085,121.329498 
	C30.669769,121.990097 30.786451,122.650688 30.895832,123.971817 
	C31.487932,125.506111 32.087337,126.379883 32.686737,127.253654 
	C32.772484,127.624672 32.858223,127.995697 32.985703,128.992432 
	C34.298515,131.461548 35.569580,133.304916 36.840645,135.148300 
	C36.840649,135.148300 36.964256,135.536804 36.995026,136.075806 
	C38.559669,138.497787 40.093548,140.380768 41.627426,142.263733 
	C41.627426,142.263733 41.653946,142.331772 41.707390,142.654541 
	C42.395580,143.410858 43.030327,143.844406 43.665077,144.277939 
	C44.295063,145.049377 44.925049,145.820801 45.786495,147.127365 
	C46.663322,148.123093 47.308689,148.583694 47.954056,149.044312 
	C47.954056,149.044312 48.000000,149.000000 48.005077,149.334274 
	C48.671715,150.114273 49.333275,150.559982 49.994835,151.005707 
	C51.082806,151.969238 52.170780,152.932755 53.596725,154.370850 
	C54.664913,155.173157 55.395130,155.500870 56.125343,155.828583 
	C56.125343,155.828583 56.437916,156.054382 56.652157,156.489807 
	C58.619473,157.891861 60.372551,158.858490 62.125629,159.825119 
	C62.453255,159.988144 62.780880,160.151184 63.482887,160.735138 
	C65.947426,162.043777 68.037590,162.931473 70.127747,163.819168 
	C70.746452,164.023376 71.365158,164.227600 72.499474,164.768097 
	C74.760178,165.584839 76.505272,166.065292 78.250366,166.545731 
	C78.638771,166.614792 79.027176,166.683853 79.973854,167.062408 
	C83.111229,167.742065 85.690338,168.112228 88.269447,168.482391 
	C93.786491,168.501770 99.303535,168.521164 105.659988,168.650833 
	C108.996300,168.107941 111.493210,167.454758 113.990120,166.801575 
	C114.379997,166.748947 114.769867,166.696320 115.797302,166.695099 
	C117.619637,166.113556 118.804398,165.480606 119.989166,164.847626 
	C120.371040,164.754852 120.752914,164.662064 121.779129,164.602448 
	C125.069160,163.257950 127.714859,161.880249 130.360565,160.502563 
	C131.700500,159.757416 133.040436,159.012283 134.987503,158.115936 
	C136.100403,157.347260 136.606171,156.729813 137.111954,156.112350 
	C137.111954,156.112350 137.461761,155.915451 137.962616,155.886108 
	C139.375061,154.984528 140.286667,154.112274 141.198257,153.240021 
	C141.198257,153.240021 141.175308,153.189148 141.521271,153.165009 
	C142.551010,152.401382 143.234772,151.661926 143.918533,150.922455 
	C143.918533,150.922455 143.997284,150.990768 144.296661,150.918579 
	C145.713364,149.549225 146.830673,148.252029 147.947983,146.954834 
	C147.947983,146.954834 147.998978,146.995590 148.286011,146.914398 
	C149.000595,146.185974 149.428131,145.538757 149.855682,144.891525 
	C150.514236,144.144363 151.172806,143.397186 152.290802,142.312622 
	C153.092148,141.265381 153.434067,140.555511 153.775986,139.845657 
	C153.775986,139.845657 153.953156,139.483704 154.372406,139.249649 
	C155.804947,137.302719 156.818222,135.589828 157.831512,133.876938 
	C157.986465,133.546707 158.141418,133.216476 158.722626,132.539200 
	C160.255920,129.700592 161.362976,127.209007 162.470047,124.717430 
	C162.567703,124.337364 162.665344,123.957291 163.111755,123.096252 
	C163.855774,121.340424 164.251007,120.065567 164.646240,118.790710 
	C164.709793,118.393845 164.773331,117.996986 165.118317,117.024353 
	C165.818100,114.230621 166.236465,112.012650 166.654816,109.794678 
	C166.779755,108.826805 166.904709,107.858940 167.548218,106.522675 
	C171.776810,106.006592 175.486847,105.858894 179.196869,105.711197 
	C179.288788,106.861061 179.380707,108.010925 179.151031,109.802696 
	C178.511185,112.630424 178.192902,114.816246 177.874619,117.002068 
	C177.772842,117.661575 177.671051,118.321083 177.236221,119.481049 
	C174.963837,125.009186 173.024506,130.036865 171.085175,135.064545 
	C170.979538,135.425095 170.873886,135.785629 170.377869,136.484070 
	C169.691101,137.572708 169.394699,138.323471 169.098297,139.074219 
z"/>
<path fill="#F1F5FD" opacity="1.000000" stroke="none" 
	d="
M139.405457,100.969604 
	C139.456940,98.940048 139.508423,96.910484 139.674042,94.123192 
	C139.653503,86.451836 138.013229,80.090393 133.035461,74.952965 
	C133.035461,74.952965 132.930695,74.522995 132.890213,74.006134 
	C132.276901,72.938240 131.704071,72.387199 131.131241,71.836166 
	C131.131241,71.836166 131.000076,71.450661 130.905273,70.940712 
	C125.633553,66.014931 124.082542,61.087448 128.657776,55.280762 
	C128.730408,55.188576 128.634811,54.963837 128.617722,54.800961 
	C128.617722,54.800961 128.737350,54.701511 129.039474,54.614937 
	C129.894058,54.329014 130.446533,54.129669 130.998993,53.930321 
	C132.948013,55.703976 134.897018,57.477634 136.982758,59.899494 
	C140.605453,65.420151 144.091446,70.292610 147.577438,75.165062 
	C147.753845,75.811462 147.930252,76.457863 148.051971,77.768036 
	C148.543030,79.336319 149.088776,80.240837 149.634521,81.145355 
	C149.724335,81.557411 149.814133,81.969475 149.738770,82.985809 
	C150.302155,86.094681 151.030685,88.599274 151.759216,91.103874 
	C151.145264,98.472084 150.531296,105.840294 149.496841,113.672714 
	C147.444519,118.158745 145.812683,122.180565 144.180847,126.202393 
	C144.051147,126.555580 143.921432,126.908768 143.325775,127.541428 
	C141.640808,129.622345 140.421783,131.423782 139.202759,133.225220 
	C137.398376,135.111954 135.593979,136.998703 133.158966,139.036652 
	C132.069839,139.847549 131.611343,140.507248 131.152832,141.166946 
	C131.152832,141.166946 131.013107,141.007278 130.769241,141.073608 
	C129.997437,141.717300 129.469498,142.294647 128.941544,142.871979 
	C128.941544,142.871979 128.687607,143.143036 128.138611,143.154266 
	C124.002800,145.265717 120.415970,147.365936 116.829147,149.466156 
	C116.690536,149.559006 116.551926,149.651871 115.895584,149.819046 
	C114.671440,150.329147 113.965019,150.764923 113.258591,151.200684 
	C111.766373,151.445740 110.274162,151.690811 108.094742,151.923584 
	C106.937126,151.905075 106.466721,151.898865 105.681290,151.717834 
	C99.578590,151.672913 93.790909,151.802795 87.620224,151.911194 
	C86.482613,151.950607 85.728020,152.011490 84.973419,152.072388 
	C84.573128,151.934219 84.172844,151.796036 83.306656,151.257660 
	C79.150551,149.628815 75.460358,148.400177 71.770164,147.171539 
	C70.849777,146.717133 69.929382,146.262711 68.564606,145.400055 
	C64.832031,142.547897 61.543842,140.103989 58.255653,137.660080 
	C57.902512,137.254822 57.549366,136.849548 57.008560,135.955994 
	C55.860764,134.670670 54.900627,133.873657 53.940491,133.076630 
	C53.940495,133.076630 54.001976,133.023529 53.986885,132.714996 
	C53.379200,131.859146 52.786602,131.311813 52.194008,130.764481 
	C52.194008,130.764481 52.082863,130.391861 51.990829,129.890625 
	C50.676121,127.835556 49.453445,126.281738 48.230774,124.727921 
	C48.133160,124.367088 48.035549,124.006256 47.901093,123.008507 
	C46.766819,119.493088 45.543640,116.654945 44.603741,113.725891 
	C43.424385,110.050621 42.477249,106.300835 41.429893,102.583206 
	C41.436729,101.941338 41.443569,101.299461 41.599735,100.077034 
	C41.614277,97.986671 41.479488,96.476875 41.344704,94.967072 
	C41.405064,94.339890 41.465420,93.712700 41.770840,92.534607 
	C43.931877,85.285545 45.847855,78.587395 47.763828,71.889236 
	C47.763828,71.889236 47.947445,71.480934 48.300377,71.139206 
	C49.723068,68.840607 50.792820,66.883736 51.862576,64.926865 
	C51.862576,64.926865 52.090206,64.617912 52.477074,64.366760 
	C54.197960,62.378727 55.531979,60.641846 56.866001,58.904968 
	C56.866001,58.904968 56.942616,58.942936 57.265720,58.888821 
	C60.730335,55.405487 62.562122,59.028633 64.852280,60.183632 
	C64.852280,60.183632 64.960258,60.571068 65.034706,61.054756 
	C65.689606,62.086891 66.270058,62.635342 66.850510,63.183796 
	C66.850510,63.183796 66.911613,63.587540 66.862549,64.109871 
	C66.795761,65.339455 66.778023,66.046715 66.760292,66.753967 
	C66.760292,66.753967 66.975555,66.915634 66.542694,66.880478 
	C65.700562,67.527931 65.291298,68.210548 64.882034,68.893166 
	C64.882034,68.893166 65.002663,68.987976 64.638878,69.005768 
	C63.887405,69.703026 63.499718,70.382500 63.112034,71.061974 
	C63.112034,71.061974 62.864166,71.344078 62.478691,71.625542 
	C55.198399,80.810432 52.048344,90.706093 54.123310,101.986191 
	C54.118198,102.411583 54.113087,102.836983 54.051487,103.975342 
	C55.496170,111.556061 57.140556,118.357574 62.638523,123.376785 
	C62.638523,123.376785 62.736073,123.732399 62.848320,124.197525 
	C63.597218,125.151367 64.233864,125.640091 64.870514,126.128815 
	C64.870514,126.128815 65.001854,126.009827 64.925667,126.410873 
	C66.178421,127.930367 67.507355,129.048798 68.836296,130.167236 
	C68.836296,130.167236 69.000000,130.000000 68.973831,130.419373 
	C75.712296,137.211487 83.967903,140.509018 92.999954,141.419952 
	C102.218140,142.349655 111.108215,140.948715 118.536743,134.623123 
	C118.873619,134.498871 119.210495,134.374603 120.073837,134.045685 
	C121.693649,132.864822 122.786987,131.888611 123.880325,130.912399 
	C123.880325,130.912399 123.960075,130.959763 124.281311,130.911652 
	C126.686226,128.549484 128.769913,126.235397 130.853577,123.921310 
	C130.853577,123.921310 131.069580,123.587769 131.447479,123.303955 
	C136.425186,116.382622 140.552597,109.582703 139.405457,100.969604 
z"/>
<path fill="#E6EDFC" opacity="1.000000" stroke="none" 
	d="
M142.639389,30.660370 
	C144.444366,30.528652 146.476089,30.042366 147.480179,30.843712 
	C165.222534,45.003796 175.837357,63.413944 179.448517,85.794342 
	C179.839874,88.219894 181.130203,91.670341 176.315216,92.067451 
	C168.739288,92.692268 167.470261,92.081894 166.783798,87.085007 
	C164.455704,70.138290 156.722855,55.909485 144.087311,44.584126 
	C137.755844,38.909176 136.870178,39.953747 142.639389,30.660370 
z"/>
<path fill="#E7EEFC" opacity="1.000000" stroke="none" 
	d="
M111.815063,98.998749 
	C111.818901,93.183578 111.978172,87.862083 111.779839,82.553955 
	C111.606079,77.903618 114.643929,78.045029 117.742851,78.134903 
	C120.769180,78.222679 124.381859,77.267433 124.320068,82.421173 
	C124.200600,92.386620 124.141937,102.357635 124.352562,112.320129 
	C124.455910,117.208138 121.449860,117.068680 118.124023,117.010963 
	C114.930626,116.955544 111.544449,117.472664 111.782249,112.453178 
	C111.986397,108.144020 111.818481,103.817238 111.815063,98.998749 
z"/>
<path fill="#E7EEFC" opacity="1.000000" stroke="none" 
	d="
M90.571793,111.528534 
	C90.569511,103.950775 90.770805,96.816338 90.504051,89.699448 
	C90.308121,84.472122 93.622742,84.821541 97.054398,84.810074 
	C100.345734,84.799072 103.367401,84.538574 103.164581,89.505623 
	C102.860535,96.951622 102.981789,104.421234 103.130295,111.876663 
	C103.198135,115.282593 102.382965,117.372169 98.465240,117.006271 
	C94.940704,116.677078 90.170837,118.429451 90.571793,111.528534 
z"/>
<path fill="#F3F6FD" opacity="1.000000" stroke="none" 
	d="
M83.225197,43.496864 
	C83.623207,43.413143 84.021210,43.329418 85.056305,43.416187 
	C93.454895,43.470898 101.216408,43.355118 108.977913,43.239338 
	C109.378365,43.277302 109.778809,43.315262 110.609970,43.722801 
	C112.537445,45.043423 114.034218,45.994465 115.741341,47.079163 
	C114.777359,49.422581 113.848892,51.679665 112.580429,54.153839 
	C110.533394,54.512428 108.825562,54.775467 107.119499,54.764458 
	C105.017281,54.750885 102.916519,54.509071 100.815132,54.365891 
	C100.407845,54.328030 100.000557,54.290169 98.995979,54.061050 
	C93.163445,54.524685 87.867867,54.879860 82.709801,55.918163 
	C77.479156,56.971077 77.007645,52.295555 74.789505,49.829815 
	C74.491158,49.498161 76.224327,47.338985 77.390099,46.044689 
	C79.584015,45.207829 81.404610,44.352348 83.225197,43.496864 
z"/>
<path fill="#DFE8FC" opacity="1.000000" stroke="none" 
	d="
M81.743103,96.779510 
	C81.865814,102.496941 81.774063,107.795937 81.959908,113.085182 
	C82.101410,117.112724 79.544167,117.337875 76.741966,117.009277 
	C73.844795,116.669533 69.450729,118.795158 69.214294,113.285629 
	C69.015785,108.660172 69.288216,104.015190 69.115456,99.387695 
	C68.985352,95.902733 70.556046,94.387199 73.852287,94.795128 
	C76.475113,95.119720 79.051178,95.822174 81.743103,96.779510 
z"/>
<path fill="#598BEF" opacity="1.000000" stroke="none" 
	d="
M118.163628,134.532715 
	C111.108215,140.948715 102.218140,142.349655 92.999954,141.419952 
	C83.967903,140.509018 75.712296,137.211487 68.891434,130.502411 
	C69.469101,130.317093 70.231216,130.291382 70.718292,130.644775 
	C85.646584,141.475815 101.393456,141.937241 118.163628,134.532715 
z"/>
<path fill="#6493F0" opacity="1.000000" stroke="none" 
	d="
M77.016777,46.026070 
	C76.224327,47.338985 74.491158,49.498161 74.789505,49.829815 
	C77.007645,52.295555 77.479156,56.971077 82.709801,55.918163 
	C87.867867,54.879860 93.163445,54.524685 98.689606,54.087120 
	C93.045753,55.698017 87.052658,58.280289 81.200340,57.993176 
	C78.188583,57.845425 74.876068,52.932713 72.732918,49.523499 
	C71.103867,46.932095 73.740921,45.495068 76.684052,45.324226 
	C77.040352,45.575672 77.016777,46.026070 77.016777,46.026070 
z"/>
<path fill="#598BEF" opacity="1.000000" stroke="none" 
	d="
M54.339783,101.648941 
	C52.048344,90.706093 55.198399,80.810432 62.415707,71.802429 
	C60.848194,76.043877 58.417789,80.245552 57.208298,84.773369 
	C55.774895,90.139381 55.393570,95.786438 54.339783,101.648941 
z"/>
<path fill="#6F9BF1" opacity="1.000000" stroke="none" 
	d="
M48.908699,166.627167 
	C55.267784,169.459427 61.712479,172.660629 68.228653,175.709061 
	C70.746513,176.886993 73.426460,177.718460 76.237015,178.978302 
	C73.439232,178.629379 70.150024,178.589844 67.492119,177.274582 
	C61.176689,174.149414 55.160164,170.420212 48.908699,166.627167 
z"/>
<path fill="#6896F0" opacity="1.000000" stroke="none" 
	d="
M76.694557,15.605809 
	C68.264221,19.911325 59.545288,24.030069 50.464207,28.133842 
	C56.189384,24.523256 62.174526,20.734571 68.416435,17.431046 
	C70.774155,16.183228 73.725311,16.056698 76.694557,15.605809 
z"/>
<path fill="#97B6F4" opacity="1.000000" stroke="none" 
	d="
M108.681961,42.993828 
	C101.216408,43.355118 93.454895,43.470898 85.361473,43.405334 
	C92.748787,39.812229 100.554466,40.645718 108.681961,42.993828 
z"/>
<path fill="#598BEF" opacity="1.000000" stroke="none" 
	d="
M139.130402,101.240906 
	C140.552597,109.582703 136.425186,116.382622 131.495300,123.111107 
	C133.728592,115.972107 136.291962,108.742157 139.130402,101.240906 
z"/>
<path fill="#6F9BF1" opacity="1.000000" stroke="none" 
	d="
M118.273811,179.264069 
	C121.133835,177.750183 124.303444,176.499939 127.379799,175.051636 
	C131.422806,173.148224 135.392395,171.088898 139.751709,169.121277 
	C136.792694,171.331329 133.659927,173.904419 130.107101,175.594360 
	C126.466141,177.326218 122.414055,178.193741 118.273811,179.264069 
z"/>
<path fill="#578AEF" opacity="1.000000" stroke="none" 
	d="
M47.445084,72.011818 
	C45.847855,78.587395 43.931877,85.285545 41.749229,92.219650 
	C40.415390,84.863007 43.507175,78.425468 47.445084,72.011818 
z"/>
<path fill="#578AEF" opacity="1.000000" stroke="none" 
	d="
M41.262726,103.014648 
	C42.477249,106.300835 43.424385,110.050621 44.603741,113.725891 
	C45.543640,116.654945 46.766819,119.493088 47.797562,122.747658 
	C42.962563,117.426582 41.396202,110.649734 41.262726,103.014648 
z"/>
<path fill="#598BEF" opacity="1.000000" stroke="none" 
	d="
M62.696281,123.007111 
	C57.140556,118.357574 55.496170,111.556061 54.114342,104.288841 
	C55.710182,107.298187 57.143719,110.726471 58.676334,114.109856 
	C59.976143,116.979301 61.390419,119.796906 62.696281,123.007111 
z"/>
<path fill="#598BEF" opacity="1.000000" stroke="none" 
	d="
M132.998428,75.328690 
	C138.013229,80.090393 139.653503,86.451836 139.596390,93.693733 
	C137.256866,87.916145 135.109131,81.810272 132.998428,75.328690 
z"/>
<path fill="#ACC5F6" opacity="1.000000" stroke="none" 
	d="
M88.003235,151.932678 
	C93.790909,151.802795 99.578590,151.672913 105.604149,151.982956 
	C105.726746,152.770126 105.611458,153.117371 105.496170,153.464615 
	C100.103783,153.506470 94.711380,153.548325 88.828995,153.296570 
	C88.227089,152.646179 88.115158,152.289429 88.003235,151.932678 
z"/>
<path fill="#598BEF" opacity="1.000000" stroke="none" 
	d="
M128.296143,54.886284 
	C128.634811,54.963837 128.730408,55.188576 128.657776,55.280762 
	C124.082542,61.087448 125.633553,66.014931 130.786041,70.775681 
	C121.819580,65.653816 121.318733,62.751743 128.296143,54.886284 
z"/>
<path fill="#5C8EEF" opacity="1.000000" stroke="none" 
	d="
M131.407471,23.968357 
	C130.167542,19.424189 125.709717,19.740984 122.649879,18.144094 
	C121.054604,17.311539 119.229927,16.918545 117.263710,16.053619 
	C121.789314,17.221697 126.596657,18.561647 131.278656,20.249371 
	C131.790970,20.434048 131.582245,22.618946 131.407471,23.968357 
z"/>
<path fill="#A5C0F6" opacity="1.000000" stroke="none" 
	d="
M147.638611,74.810272 
	C144.091446,70.292610 140.605453,65.420151 137.118103,60.195488 
	C140.644394,64.714020 144.172089,69.584755 147.638611,74.810272 
z"/>
<path fill="#97B6F4" opacity="1.000000" stroke="none" 
	d="
M112.920425,53.936745 
	C113.848892,51.679665 114.777359,49.422581 115.741341,47.079163 
	C114.034218,45.994465 112.537445,45.043423 110.901855,43.801788 
	C118.638054,43.949924 119.266724,45.649330 113.976891,53.760925 
	C113.306061,53.999477 113.113235,53.968113 112.920425,53.936745 
z"/>
<path fill="#6F9BF1" opacity="1.000000" stroke="none" 
	d="
M171.416458,134.963074 
	C173.024506,130.036865 174.963837,125.009186 177.205460,119.813400 
	C175.587753,124.717400 173.667755,129.789490 171.416458,134.963074 
z"/>
<path fill="#6493F0" opacity="1.000000" stroke="none" 
	d="
M112.580429,54.153839 
	C113.113235,53.968113 113.306061,53.999477 113.791473,54.047363 
	C112.580879,55.094547 111.053978,57.006813 109.579597,56.967148 
	C106.756271,56.891182 103.962814,55.705715 100.986046,54.673267 
	C102.916519,54.509071 105.017281,54.750885 107.119499,54.764458 
	C108.825562,54.775467 110.533394,54.512428 112.580429,54.153839 
z"/>
<path fill="#ACC5F6" opacity="1.000000" stroke="none" 
	d="
M71.870041,147.514923 
	C75.460358,148.400177 79.150551,149.628815 83.010201,151.142242 
	C79.443077,150.237442 75.706497,149.047867 71.870041,147.514923 
z"/>
<path fill="#6F9BF1" opacity="1.000000" stroke="none" 
	d="
M20.103483,131.201782 
	C22.363089,134.396927 24.537050,137.963226 26.656841,141.886383 
	C24.407726,138.686447 22.212784,135.129700 20.103483,131.201782 
z"/>
<path fill="#98B7F5" opacity="1.000000" stroke="none" 
	d="
M144.520721,126.116745 
	C145.812683,122.180565 147.444519,118.158745 149.381256,113.988724 
	C148.077621,117.904045 146.469116,121.967575 144.520721,126.116745 
z"/>
<path fill="#6F9BF1" opacity="1.000000" stroke="none" 
	d="
M26.343357,52.885536 
	C24.728239,56.521645 22.792465,60.253445 20.529850,64.084099 
	C22.142906,60.449043 24.082804,56.715137 26.343357,52.885536 
z"/>
<path fill="#ACC5F6" opacity="1.000000" stroke="none" 
	d="
M117.178520,149.563080 
	C120.415970,147.365936 124.002800,145.265717 127.961426,143.209869 
	C124.731445,145.389496 121.129669,147.524734 117.178520,149.563080 
z"/>
<path fill="#578AEF" opacity="1.000000" stroke="none" 
	d="
M58.282249,138.007050 
	C61.543842,140.103989 64.832031,142.547897 68.277176,145.283783 
	C65.059036,143.168503 61.683945,140.761276 58.282249,138.007050 
z"/>
<path fill="#6F9BF1" opacity="1.000000" stroke="none" 
	d="
M36.976097,156.368195 
	C39.939945,158.473358 42.899239,160.926086 45.902405,163.712128 
	C42.954697,161.602234 39.963116,159.158997 36.976097,156.368195 
z"/>
<path fill="#6F9BF1" opacity="1.000000" stroke="none" 
	d="
M179.012543,105.386841 
	C175.486847,105.858894 171.776810,106.006592 167.612930,106.162460 
	C171.048782,105.801254 174.938492,105.431870 179.012543,105.386841 
z"/>
<path fill="#578AEF" opacity="1.000000" stroke="none" 
	d="
M64.871811,59.821190 
	C62.562122,59.028633 60.730335,55.405487 57.246807,58.850479 
	C59.813492,53.683006 61.509789,53.808846 64.871811,59.821190 
z"/>
<path fill="#6F9BF1" opacity="1.000000" stroke="none" 
	d="
M15.827691,118.280174 
	C17.290995,121.465828 18.605419,124.930779 19.838322,128.778473 
	C18.397470,125.627312 17.038141,122.093391 15.827691,118.280174 
z"/>
<path fill="#5C8EEF" opacity="1.000000" stroke="none" 
	d="
M57.182938,38.871407 
	C59.665787,36.911221 62.514847,34.980396 65.723259,33.098671 
	C63.238121,35.065434 60.393635,36.983101 57.182938,38.871407 
z"/>
<path fill="#6F9BF1" opacity="1.000000" stroke="none" 
	d="
M15.367413,79.976517 
	C15.242087,82.678986 14.820671,85.560287 14.146112,88.720245 
	C14.285753,86.051048 14.678537,83.103195 15.367413,79.976517 
z"/>
<path fill="#6F9BF1" opacity="1.000000" stroke="none" 
	d="
M13.692719,106.304314 
	C14.555742,108.799545 15.221212,111.594261 15.767555,114.799469 
	C14.930673,112.341232 14.212917,109.472519 13.692719,106.304314 
z"/>
<path fill="#6F9BF1" opacity="1.000000" stroke="none" 
	d="
M19.473671,65.997948 
	C18.792276,69.184723 17.790380,72.508858 16.464344,75.981247 
	C17.144527,72.798103 18.148849,69.466705 19.473671,65.997948 
z"/>
<path fill="#598BEF" opacity="1.000000" stroke="none" 
	d="
M130.521942,123.974518 
	C128.769913,126.235397 126.686226,128.549484 124.257645,130.871765 
	C126.005272,128.595901 128.097794,126.311806 130.521942,123.974518 
z"/>
<path fill="#6F9BF1" opacity="1.000000" stroke="none" 
	d="
M79.264420,179.959839 
	C81.972908,180.090988 84.947205,180.503601 88.147301,181.181976 
	C85.425468,181.045593 82.477852,180.643463 79.264420,179.959839 
z"/>
<path fill="#5C8EEF" opacity="1.000000" stroke="none" 
	d="
M104.988358,26.840275 
	C107.522835,26.987144 110.264656,27.414822 113.251892,28.104118 
	C110.730110,27.950855 107.962906,27.535967 104.988358,26.840275 
z"/>
<path fill="#6896F0" opacity="1.000000" stroke="none" 
	d="
M86.693573,13.592731 
	C84.498550,14.449001 82.015022,15.107103 79.139542,15.617731 
	C81.300079,14.778358 83.852570,14.086460 86.693573,13.592731 
z"/>
<path fill="#A5C0F6" opacity="1.000000" stroke="none" 
	d="
M151.896133,90.705826 
	C151.030685,88.599274 150.302155,86.094681 149.744110,83.302765 
	C150.620758,85.446220 151.326904,87.876999 151.896133,90.705826 
z"/>
<path fill="#6F9BF1" opacity="1.000000" stroke="none" 
	d="
M88.068268,168.214142 
	C85.690338,168.112228 83.111229,167.742065 80.267426,167.100052 
	C82.624168,167.200760 85.245628,167.573334 88.068268,168.214142 
z"/>
<path fill="#6F9BF1" opacity="1.000000" stroke="none" 
	d="
M113.695145,166.632416 
	C111.493210,167.454758 108.996300,168.107941 106.107483,168.603668 
	C108.277115,167.785233 110.838646,167.124237 113.695145,166.632416 
z"/>
<path fill="#6F9BF1" opacity="1.000000" stroke="none" 
	d="
M106.015121,181.571289 
	C108.216080,180.742264 110.816681,180.095154 113.706406,179.618073 
	C111.468605,180.443115 108.941689,181.098145 106.015121,181.571289 
z"/>
<path fill="#5C8EEF" opacity="1.000000" stroke="none" 
	d="
M121.896286,30.958199 
	C123.829185,30.060492 125.906990,29.453320 128.306152,28.735962 
	C127.863472,33.094391 125.781441,34.253475 121.896286,30.958199 
z"/>
<path fill="#6F9BF1" opacity="1.000000" stroke="none" 
	d="
M27.017305,88.712173 
	C27.121830,86.333214 27.468925,83.660782 28.102009,80.792938 
	C28.011955,83.204590 27.635916,85.811653 27.017305,88.712173 
z"/>
<path fill="#6896F0" opacity="1.000000" stroke="none" 
	d="
M43.002686,33.334858 
	C41.461498,35.246960 39.570511,37.094646 37.341057,38.972527 
	C38.886024,37.091961 40.769459,35.181202 43.002686,33.334858 
z"/>
<path fill="#5C8EEF" opacity="1.000000" stroke="none" 
	d="
M80.888092,28.493391 
	C82.832878,27.650328 85.164185,26.971083 87.863785,26.443306 
	C85.912918,27.282253 83.593758,27.969732 80.888092,28.493391 
z"/>
<path fill="#6F9BF1" opacity="1.000000" stroke="none" 
	d="
M130.005157,160.400803 
	C127.714859,161.880249 125.069160,163.257950 122.064331,164.527924 
	C124.353386,163.046494 127.001564,161.672760 130.005157,160.400803 
z"/>
<path fill="#6F9BF1" opacity="1.000000" stroke="none" 
	d="
M162.164368,124.840149 
	C161.362976,127.209007 160.255920,129.700592 158.818222,132.282639 
	C159.611282,129.903030 160.735001,127.432953 162.164368,124.840149 
z"/>
<path fill="#6F9BF1" opacity="1.000000" stroke="none" 
	d="
M178.156006,116.795731 
	C178.192902,114.816246 178.511185,112.630424 179.122131,110.237526 
	C179.088989,112.216759 178.763199,114.403076 178.156006,116.795731 
z"/>
<path fill="#6F9BF1" opacity="1.000000" stroke="none" 
	d="
M41.667931,141.913513 
	C40.093548,140.380768 38.559669,138.497787 37.068268,136.266052 
	C38.643307,137.799286 40.175869,139.681305 41.667931,141.913513 
z"/>
<path fill="#6F9BF1" opacity="1.000000" stroke="none" 
	d="
M148.312164,163.948486 
	C149.677475,162.264740 151.393341,160.565079 153.452576,158.844513 
	C152.084885,160.526611 150.373795,162.229584 148.312164,163.948486 
z"/>
<path fill="#6F9BF1" opacity="1.000000" stroke="none" 
	d="
M28.538815,114.004372 
	C27.761904,112.113899 27.129324,109.838806 26.666752,107.282440 
	C27.452223,109.207359 28.067684,111.413551 28.538815,114.004372 
z"/>
<path fill="#6F9BF1" opacity="1.000000" stroke="none" 
	d="
M166.369019,109.965775 
	C166.236465,112.012650 165.818100,114.230621 165.150772,116.724640 
	C165.295609,114.712738 165.689407,112.424805 166.369019,109.965775 
z"/>
<path fill="#97B6F4" opacity="1.000000" stroke="none" 
	d="
M77.390099,46.044689 
	C77.016777,46.026070 77.040352,45.575672 77.053185,45.350571 
	C78.887962,44.492630 80.709908,43.859787 82.878525,43.361908 
	C81.404610,44.352348 79.584015,45.207829 77.390099,46.044689 
z"/>
<path fill="#98B7F5" opacity="1.000000" stroke="none" 
	d="
M139.532669,133.162537 
	C140.421783,131.423782 141.640808,129.622345 143.192139,127.790131 
	C142.303833,129.539536 141.083206,131.319702 139.532669,133.162537 
z"/>
<path fill="#578AEF" opacity="1.000000" stroke="none" 
	d="
M56.524956,58.945679 
	C55.531979,60.641846 54.197960,62.378727 52.534424,64.183655 
	C53.531239,62.496597 54.857578,60.741489 56.524956,58.945679 
z"/>
<path fill="#578AEF" opacity="1.000000" stroke="none" 
	d="
M51.521877,64.979904 
	C50.792820,66.883736 49.723068,68.840607 48.342171,70.919304 
	C49.081078,69.038399 50.131130,67.035675 51.521877,64.979904 
z"/>
<path fill="#6F9BF1" opacity="1.000000" stroke="none" 
	d="
M70.020790,163.496506 
	C68.037590,162.931473 65.947426,162.043777 63.736450,160.840225 
	C65.715034,161.407516 67.814438,162.290680 70.020790,163.496506 
z"/>
<path fill="#6F9BF1" opacity="1.000000" stroke="none" 
	d="
M36.877750,134.791107 
	C35.569580,133.304916 34.298515,131.461548 33.075375,129.263687 
	C34.387154,130.750778 35.651005,132.592361 36.877750,134.791107 
z"/>
<path fill="#6F9BF1" opacity="1.000000" stroke="none" 
	d="
M78.071640,166.252029 
	C76.505272,166.065292 74.760178,165.584839 72.821899,164.819702 
	C74.383453,165.009460 76.138184,165.483887 78.071640,166.252029 
z"/>
<path fill="#6F9BF1" opacity="1.000000" stroke="none" 
	d="
M157.502563,133.945435 
	C156.818222,135.589828 155.804947,137.302719 154.453308,139.065109 
	C155.134506,137.414398 156.154068,135.714157 157.502563,133.945435 
z"/>
<path fill="#6F9BF1" opacity="1.000000" stroke="none" 
	d="
M62.040817,159.501007 
	C60.372551,158.858490 58.619473,157.891861 56.819504,156.585556 
	C58.500412,157.222885 60.228210,158.199875 62.040817,159.501007 
z"/>
<path fill="#578AEF" opacity="1.000000" stroke="none" 
	d="
M48.188248,125.085648 
	C49.453445,126.281738 50.676121,127.835556 51.876350,129.733459 
	C50.617847,128.532822 49.381786,126.988098 48.188248,125.085648 
z"/>
<path fill="#6896F0" opacity="1.000000" stroke="none" 
	d="
M113.114166,14.995446 
	C111.362938,14.970120 109.435097,14.680560 107.257057,14.119562 
	C108.983757,14.142488 110.960663,14.436850 113.114166,14.995446 
z"/>
<path fill="#578AEF" opacity="1.000000" stroke="none" 
	d="
M41.100273,95.218750 
	C41.479488,96.476875 41.614277,97.986671 41.540588,99.760414 
	C41.173359,98.506378 41.014599,96.988396 41.100273,95.218750 
z"/>
<path fill="#6F9BF1" opacity="1.000000" stroke="none" 
	d="
M147.614502,146.991089 
	C146.830673,148.252029 145.713364,149.549225 144.260895,150.880066 
	C145.044189,149.618271 146.162598,148.322800 147.614502,146.991089 
z"/>
<path fill="#6F9BF1" opacity="1.000000" stroke="none" 
	d="
M33.235085,152.121201 
	C34.483936,152.967667 35.725811,154.155548 36.973431,155.681091 
	C35.728821,154.833389 34.478466,153.647995 33.235085,152.121201 
z"/>
<path fill="#598BEF" opacity="1.000000" stroke="none" 
	d="
M68.817207,129.832031 
	C67.507355,129.048798 66.178421,127.930367 64.857758,126.466751 
	C66.176727,127.246666 67.487419,128.371750 68.817207,129.832031 
z"/>
<path fill="#6F9BF1" opacity="1.000000" stroke="none" 
	d="
M119.765915,164.683151 
	C118.804398,165.480606 117.619637,166.113556 116.086105,166.634552 
	C117.005783,165.854614 118.274231,165.186646 119.765915,164.683151 
z"/>
<path fill="#6F9BF1" opacity="1.000000" stroke="none" 
	d="
M29.104601,77.787796 
	C29.207842,76.614868 29.599846,75.226212 30.283745,73.756340 
	C30.181547,74.974113 29.787455,76.273087 29.104601,77.787796 
z"/>
<path fill="#6F9BF1" opacity="1.000000" stroke="none" 
	d="
M30.655571,120.979263 
	C29.878796,120.052589 29.204508,118.775673 28.670691,117.250778 
	C29.460129,118.211533 30.109095,119.420280 30.655571,120.979263 
z"/>
<path fill="#5C8EEF" opacity="1.000000" stroke="none" 
	d="
M116.120277,29.097609 
	C117.234413,29.104549 118.480949,29.393234 119.851639,29.957485 
	C118.734756,29.948486 117.493713,29.663919 116.120277,29.097609 
z"/>
<path fill="#5C8EEF" opacity="1.000000" stroke="none" 
	d="
M67.951859,32.719849 
	C68.942810,31.847130 70.265205,31.100986 71.911041,30.475718 
	C70.917419,31.346535 69.600365,32.096478 67.951859,32.719849 
z"/>
<path fill="#6F9BF1" opacity="1.000000" stroke="none" 
	d="
M164.373840,118.901138 
	C164.251007,120.065567 163.855774,121.340424 163.160522,122.805893 
	C163.274139,121.668190 163.687775,120.339874 164.373840,118.901138 
z"/>
<path fill="#5C8EEF" opacity="1.000000" stroke="none" 
	d="
M74.245010,30.296518 
	C75.177826,29.575331 76.341476,29.030260 77.758347,28.621462 
	C76.832993,29.329369 75.654411,29.901003 74.245010,30.296518 
z"/>
<path fill="#598BEF" opacity="1.000000" stroke="none" 
	d="
M123.543854,130.917007 
	C122.786987,131.888611 121.693649,132.864822 120.259369,133.847321 
	C121.014755,132.876297 122.111069,131.898956 123.543854,130.917007 
z"/>
<path fill="#5C8EEF" opacity="1.000000" stroke="none" 
	d="
M41.346512,53.957397 
	C41.698639,52.952374 42.389668,51.899342 43.410042,50.779018 
	C43.054726,51.777615 42.370068,52.843502 41.346512,53.957397 
z"/>
<path fill="#6F9BF1" opacity="1.000000" stroke="none" 
	d="
M140.870392,153.232880 
	C140.286667,154.112274 139.375061,154.984528 138.137329,155.787323 
	C138.721619,154.887146 139.632065,154.056442 140.870392,153.232880 
z"/>
<path fill="#578AEF" opacity="1.000000" stroke="none" 
	d="
M53.929974,133.404663 
	C54.900627,133.873657 55.860764,134.670670 56.791595,135.793945 
	C55.814682,135.324356 54.867069,134.528534 53.929974,133.404663 
z"/>
<path fill="#6F9BF1" opacity="1.000000" stroke="none" 
	d="
M154.167236,158.783417 
	C154.596695,157.816925 155.369888,156.843063 156.467636,155.834351 
	C156.031784,156.791672 155.271378,157.783875 154.167236,158.783417 
z"/>
<path fill="#5C8EEF" opacity="1.000000" stroke="none" 
	d="
M37.547867,59.057632 
	C37.830185,58.033463 38.451019,56.952091 39.385521,55.773209 
	C39.094925,56.783947 38.490654,57.892189 37.547867,59.057632 
z"/>
<path fill="#437CED" opacity="1.000000" stroke="none" 
	d="
M87.620224,151.911194 
	C88.115158,152.289429 88.227089,152.646179 88.393608,153.277817 
	C87.379227,153.277176 86.310242,153.001678 85.107346,152.399277 
	C85.728020,152.011490 86.482613,151.950607 87.620224,151.911194 
z"/>
<path fill="#6F9BF1" opacity="1.000000" stroke="none" 
	d="
M165.264374,145.848007 
	C165.388428,145.009293 165.832581,144.067215 166.589661,143.015274 
	C166.463211,143.851837 166.023849,144.798233 165.264374,145.848007 
z"/>
<path fill="#A5C0F6" opacity="1.000000" stroke="none" 
	d="
M149.733826,80.814575 
	C149.088776,80.240837 148.543030,79.336319 148.092667,78.101212 
	C148.736420,78.675018 149.284775,79.579407 149.733826,80.814575 
z"/>
<path fill="#5C8EEF" opacity="1.000000" stroke="none" 
	d="
M31.476709,70.962738 
	C31.483213,70.066399 31.813440,69.048401 32.450863,67.885910 
	C32.438847,68.774643 32.119640,69.807861 31.476709,70.962738 
z"/>
<path fill="#578AEF" opacity="1.000000" stroke="none" 
	d="
M67.056808,66.729538 
	C66.778023,66.046715 66.795761,65.339455 66.939034,64.299179 
	C67.160820,64.879135 67.257072,65.792122 67.056808,66.729538 
z"/>
<path fill="#598BEF" opacity="1.000000" stroke="none" 
	d="
M130.965332,53.672997 
	C130.446533,54.129669 129.894058,54.329014 129.042480,54.537209 
	C129.472794,54.169262 130.202225,53.792465 130.965332,53.672997 
z"/>
<path fill="#5C8EEF" opacity="1.000000" stroke="none" 
	d="
M35.366127,62.918388 
	C35.446907,62.046711 35.847412,61.065132 36.569115,59.976593 
	C36.488827,60.849247 36.087337,61.828869 35.366127,62.918388 
z"/>
<path fill="#6F9BF1" opacity="1.000000" stroke="none" 
	d="
M32.776134,126.920120 
	C32.087337,126.379883 31.487932,125.506111 30.965597,124.299904 
	C31.650286,124.840508 32.257908,125.713554 32.776134,126.920120 
z"/>
<path fill="#6F9BF1" opacity="1.000000" stroke="none" 
	d="
M143.580658,150.929031 
	C143.234772,151.661926 142.551010,152.401382 141.549072,153.167450 
	C141.901535,152.441238 142.572144,151.688416 143.580658,150.929031 
z"/>
<path fill="#6F9BF1" opacity="1.000000" stroke="none" 
	d="
M56.058098,155.515228 
	C55.395130,155.500870 54.664913,155.173157 53.868225,154.528488 
	C54.531456,154.541656 55.261154,154.871765 56.058098,155.515228 
z"/>
<path fill="#6F9BF1" opacity="1.000000" stroke="none" 
	d="
M169.401733,138.972961 
	C169.394699,138.323471 169.691101,137.572708 170.307617,136.757080 
	C170.320206,137.418701 170.012695,138.145203 169.401733,138.972961 
z"/>
<path fill="#6896F0" opacity="1.000000" stroke="none" 
	d="
M45.642487,30.987984 
	C45.480350,31.587082 45.008530,32.210949 44.217865,32.845825 
	C44.376945,32.242142 44.854874,31.627445 45.642487,30.987984 
z"/>
<path fill="#6F9BF1" opacity="1.000000" stroke="none" 
	d="
M30.410545,46.878647 
	C30.341236,47.488029 29.964197,48.161732 29.279774,48.902470 
	C29.349197,48.293995 29.726007,47.618481 30.410545,46.878647 
z"/>
<path fill="#6F9BF1" opacity="1.000000" stroke="none" 
	d="
M136.786377,156.096146 
	C136.606171,156.729813 136.100403,157.347260 135.271622,157.950516 
	C135.452682,157.317520 135.956741,156.698730 136.786377,156.096146 
z"/>
<path fill="#578AEF" opacity="1.000000" stroke="none" 
	d="
M52.160957,131.091614 
	C52.786602,131.311813 53.379200,131.859146 53.949249,132.729813 
	C53.327099,132.508347 52.727501,131.963531 52.160957,131.091614 
z"/>
<path fill="#598BEF" opacity="1.000000" stroke="none" 
	d="
M64.875381,125.803780 
	C64.233864,125.640091 63.597218,125.151367 62.959641,124.344498 
	C63.599228,124.510475 64.239746,124.994614 64.875381,125.803780 
z"/>
<path fill="#578AEF" opacity="1.000000" stroke="none" 
	d="
M66.886925,62.862244 
	C66.270058,62.635342 65.689606,62.086891 65.143356,61.223972 
	C65.759491,61.453232 66.341415,61.996964 66.886925,62.862244 
z"/>
<path fill="#5C8EEF" opacity="1.000000" stroke="none" 
	d="
M33.515747,66.028748 
	C33.516205,65.376495 33.832481,64.645157 34.463158,63.833183 
	C34.462227,64.484917 34.146896,65.217293 33.515747,66.028748 
z"/>
<path fill="#578AEF" opacity="1.000000" stroke="none" 
	d="
M65.199951,68.836426 
	C65.291298,68.210548 65.700562,67.527931 66.429184,66.808853 
	C66.338326,67.441483 65.928101,68.110580 65.199951,68.836426 
z"/>
<path fill="#6F9BF1" opacity="1.000000" stroke="none" 
	d="
M141.121307,168.836349 
	C141.402649,168.256500 141.998993,167.729950 142.905914,167.270615 
	C142.623093,167.855118 142.029709,168.372375 141.121307,168.836349 
z"/>
<path fill="#578AEF" opacity="1.000000" stroke="none" 
	d="
M63.436195,71.023788 
	C63.499718,70.382500 63.887405,69.703026 64.580887,68.954269 
	C64.511238,69.585190 64.135796,70.285400 63.436195,71.023788 
z"/>
<path fill="#598BEF" opacity="1.000000" stroke="none" 
	d="
M131.105225,72.147118 
	C131.704071,72.387199 132.276901,72.938240 132.794556,73.806610 
	C132.185974,73.568649 131.632599,73.013359 131.105225,72.147118 
z"/>
<path fill="#6F9BF1" opacity="1.000000" stroke="none" 
	d="
M161.366806,150.982758 
	C161.428207,150.354843 161.809830,149.671295 162.489441,148.897644 
	C162.420639,149.514084 162.053833,150.220596 161.366806,150.982758 
z"/>
<path fill="#ACC5F6" opacity="1.000000" stroke="none" 
	d="
M129.258759,142.892593 
	C129.469498,142.294647 129.997437,141.717300 130.844513,141.148560 
	C130.634415,141.742508 130.105194,142.327850 129.258759,142.892593 
z"/>
<path fill="#6F9BF1" opacity="1.000000" stroke="none" 
	d="
M27.320068,144.013031 
	C27.903383,144.278885 28.438780,144.860397 28.932858,145.761856 
	C28.351744,145.497437 27.811947,144.913055 27.320068,144.013031 
z"/>
<path fill="#6F9BF1" opacity="1.000000" stroke="none" 
	d="
M149.543777,144.938782 
	C149.428131,145.538757 149.000595,146.185974 148.262878,146.890533 
	C148.379105,146.293930 148.805481,145.639984 149.543777,144.938782 
z"/>
<path fill="#6F9BF1" opacity="1.000000" stroke="none" 
	d="
M47.950226,148.718597 
	C47.308689,148.583694 46.663322,148.123093 45.984207,147.353943 
	C46.615772,147.494568 47.281082,147.943726 47.950226,148.718597 
z"/>
<path fill="#5C8EEF" opacity="1.000000" stroke="none" 
	d="
M54.302151,40.997734 
	C54.487019,40.386566 54.986977,39.782867 55.810375,39.212975 
	C55.628288,39.832924 55.122765,40.419064 54.302151,40.997734 
z"/>
<path fill="#6F9BF1" opacity="1.000000" stroke="none" 
	d="
M167.518982,142.076935 
	C167.540298,141.434647 167.884842,140.730637 168.532028,139.936829 
	C168.503845,140.569763 168.173035,141.292480 167.518982,142.076935 
z"/>
<path fill="#6F9BF1" opacity="1.000000" stroke="none" 
	d="
M31.015715,149.292313 
	C31.633963,149.481110 32.248199,149.983139 32.852600,150.800690 
	C32.232410,150.612656 31.622057,150.109100 31.015715,149.292313 
z"/>
<path fill="#6F9BF1" opacity="1.000000" stroke="none" 
	d="
M49.973579,150.688019 
	C49.333275,150.559982 48.671715,150.114273 47.982208,149.356567 
	C48.620281,149.486511 49.286304,149.928421 49.973579,150.688019 
z"/>
<path fill="#6F9BF1" opacity="1.000000" stroke="none" 
	d="
M43.691483,143.954010 
	C43.030327,143.844406 42.395580,143.410858 41.737228,142.675598 
	C42.381714,142.792603 43.049801,143.211334 43.691483,143.954010 
z"/>
<path fill="#437CED" opacity="1.000000" stroke="none" 
	d="
M113.585556,151.333008 
	C113.965019,150.764923 114.671440,150.329147 115.699417,149.974426 
	C115.318153,150.525436 114.615341,150.995377 113.585556,151.333008 
z"/>
<path fill="#6896F0" opacity="1.000000" stroke="none" 
	d="
M36.680874,39.051880 
	C36.609814,39.701538 36.216888,40.400555 35.503708,41.145061 
	C35.575306,40.494114 35.967155,39.797680 36.680874,39.051880 
z"/>
<path fill="#6F9BF1" opacity="1.000000" stroke="none" 
	d="
M153.469543,139.922272 
	C153.434067,140.555511 153.092148,141.265381 152.437592,142.048843 
	C152.471008,141.414581 152.817047,140.706726 153.469543,139.922272 
z"/>
<path fill="#ACC5F6" opacity="1.000000" stroke="none" 
	d="
M131.481857,141.161255 
	C131.611343,140.507248 132.069839,139.847549 132.852081,139.154114 
	C132.720856,139.798767 132.265869,140.477173 131.481857,141.161255 
z"/>
<path fill="#437CED" opacity="1.000000" stroke="none" 
	d="
M105.819809,153.550598 
	C105.611458,153.117371 105.726746,152.770126 105.919174,152.157776 
	C106.466721,151.898865 106.937126,151.905075 107.733780,152.045914 
	C107.421181,152.665894 106.782310,153.151230 105.819809,153.550598 
z"/>
<path fill="#6F9BF1" opacity="1.000000" stroke="none" 
	d="
M159.066986,153.718079 
	C159.156067,153.057800 159.574295,152.402710 160.303543,151.711395 
	C160.208420,152.357880 159.802277,153.040573 159.066986,153.718079 
z"/>
<path fill="#6896F0" opacity="1.000000" stroke="none" 
	d="
M32.537498,43.973701 
	C32.450909,44.572926 32.066467,45.254288 31.368366,45.998684 
	C31.449684,45.393093 31.844666,44.724468 32.537498,43.973701 
z"/>
</svg>