<?xml version="1.0" encoding="UTF-8" standalone="no"?>
<!DOCTYPE svg PUBLIC "-//W3C//DTD SVG 1.1//EN" "http://www.w3.org/Graphics/SVG/1.1/DTD/svg11.dtd">
<svg version="1.1" xmlns:xl="http://www.w3.org/1999/xlink" xmlns:dc="http://purl.org/dc/elements/1.1/" xmlns="http://www.w3.org/2000/svg" viewBox="459 212 180 180" width="180" height="180">
  <defs/>
  <g id="Canvas_1" stroke-dasharray="none" fill-opacity="1" fill="none" stroke-opacity="1" stroke="none">
    <title>Canvas 1</title>
    <rect fill="white" x="9223372036854775808e-2147483648" y="9223372036854775808e-2147483648" width="0" height="0"/>
    <g id="Canvas_1_Layer_1">
      <title>Layer 1</title>
      <g id="Graphic_2">
        <path d="M 565.161 392 C 554.3535 392 543.546 392 532.57146 391.72984 C 532.14024 391.20044 531.91056 390.7664 531.6069 390.7069 C 511.89236 386.84286 495.35575 377.5293 481.8013 362.6741 C 470.82117 350.6402 464.0118 336.6544 460.45534 320.925 C 460.3118 320.29003 459.5003 319.80492 459 319.25 C 459 308.48433 459 297.71866 459.2717 286.78603 C 459.8564 286.1175 460.2892 285.65403 460.4641 285.10852 C 462.6907 278.16448 464.2974 270.95563 467.20454 264.31022 C 472.71 251.72543 481.25713 241.31782 492.0328 232.65888 C 505.3725 221.93956 520.4571 215.5496 537.4354 213.44623 C 538.1927 213.3524 538.8552 212.4994 539.5619 212 C 545.35 212 551.1381 212 557.1308 212.2965 C 557.9703 212.89267 558.57615 213.33196 559.2447 213.47005 C 565.0076 214.66046 570.9497 215.274 576.5201 217.05006 C 591.2805 221.75625 604.39236 229.40858 614.4334 241.36232 C 619.78554 247.73395 625.1862 254.35006 628.9948 261.6668 C 638.28375 279.5119 641.0771 298.5896 637.4901 318.5521 C 634.4582 335.42565 627.20465 350.2559 615.74896 362.85183 C 602.4649 377.4581 586.0823 387.01404 566.4067 390.56523 C 565.92044 390.653 565.5731 391.50464 565.161 392 Z M 535.8005 261.0779 C 534.5927 263.93778 533.38494 266.79765 532.17716 269.65752 C 530.57753 265.0098 530.0483 260.5388 528.9886 256.1962 C 527.9235 251.83127 526.4039 247.54717 521.82883 244.81206 C 523.72814 254.3282 519.82355 262.34386 516.9499 270.54403 C 513.38404 280.7194 510.14886 290.93167 514.7616 301.61532 C 516.4348 305.49068 518.5995 309.15548 520.6791 313.186 C 511.8781 311.3669 503.2746 309.58862 494.67115 307.81035 C 494.3182 308.2694 493.96525 308.7284 493.6123 309.18745 C 497.42925 314.97157 501.3277 320.70488 505.01396 326.57046 C 506.13403 328.35272 507.29803 329.05618 509.442 329.0498 C 535.54015 328.97244 561.63876 329.03113 587.7367 328.91903 C 589.2568 328.9125 591.2443 328.1515 592.20975 327.045 C 597.14366 321.3906 601.1187 315.1118 603.5999 307.50855 C 593.91044 309.42696 584.53604 311.283 574.613 313.24765 C 575.37384 311.78663 575.7235 310.86406 576.2785 310.08705 C 584.5369 298.52575 584.339 286.09374 579.6996 273.4369 C 577.94254 268.64338 574.6179 264.40362 572.9954 259.5817 C 570.99926 253.6493 570.0354 247.37225 568.5625 240.97118 C 561.3413 252.4149 561.28857 265.80432 559.39846 278.79253 C 558.88705 277.27002 558.64325 275.73958 558.38354 274.21182 C 557.134 266.8611 556.2935 259.40917 554.4998 252.19242 C 553.007 246.18602 550.1571 240.5263 548.37297 234.5748 C 547.4519 231.50226 547.54185 228.12897 547.1647 224.80099 C 546.83474 224.96982 546.47 225.07255 546.21606 225.29876 C 541.0993 229.8572 539.58834 235.92554 538.7646 242.39307 C 537.994 248.44348 536.85214 254.44696 535.8005 261.0779 Z M 575.3252 338.00146 C 552.6911 338.00146 530.05705 338.00146 507.4857 338.00146 C 507.4857 343.04418 507.4857 347.5799 507.4857 352.0648 C 535.31935 352.0648 562.8535 352.0648 590.5277 352.0648 C 590.5277 347.34464 590.5277 342.8109 590.5277 338.00146 C 585.5585 338.00146 580.8182 338.00146 575.3252 338.00146 Z M 560.1669 377.76186 C 567.8254 374.1948 573.0398 368.7802 574.0022 359.9521 C 557.12884 359.9521 540.5223 359.9521 523.66133 359.9521 C 523.8995 364.505 525.3803 368.39767 528.3946 371.41756 C 537.30974 380.34925 547.8146 382.27786 560.1669 377.76186 Z" fill="#1f62c5"/>
      </g>
      <g id="Graphic_6">
        <path d="M 535.8371 260.7745 C 536.85214 254.44696 537.994 248.44348 538.7646 242.39307 C 539.58834 235.92554 541.0993 229.8572 546.21606 225.29876 C 546.47 225.07255 546.83474 224.96982 547.1647 224.80099 C 547.54185 228.12897 547.4519 231.50226 548.37297 234.5748 C 550.1571 240.5263 553.007 246.18602 554.4998 252.19242 C 556.2935 259.40917 557.134 266.8611 558.38354 274.21182 C 558.64325 275.73958 558.88705 277.27002 559.39846 278.79253 C 561.28857 265.80432 561.3413 252.4149 568.5625 240.97118 C 570.0354 247.37225 570.99926 253.6493 572.9954 259.5817 C 574.6179 264.40362 577.94254 268.64338 579.6996 273.4369 C 584.339 286.09374 584.5369 298.52575 576.2785 310.08705 C 575.7235 310.86406 575.37384 311.78663 574.613 313.24765 C 584.53604 311.283 593.91044 309.42696 603.5999 307.50855 C 601.1187 315.1118 597.14366 321.3906 592.20975 327.045 C 591.2443 328.1515 589.2568 328.9125 587.7367 328.91903 C 561.63876 329.03113 535.54015 328.97244 509.442 329.0498 C 507.29803 329.05618 506.13403 328.35272 505.01396 326.57046 C 501.3277 320.70488 497.42925 314.97157 493.6123 309.18745 C 493.96525 308.7284 494.3182 308.2694 494.67115 307.81035 C 503.2746 309.58862 511.8781 311.3669 520.6791 313.186 C 518.5995 309.15548 516.4348 305.49068 514.7616 301.61532 C 510.14886 290.93167 513.38404 280.7194 516.9499 270.54403 C 519.82355 262.34386 523.72814 254.3282 521.82883 244.81207 C 526.4039 247.54717 527.9235 251.83127 528.9886 256.1962 C 530.0483 260.5388 530.57753 265.0098 532.17716 269.65752 C 533.38494 266.79765 534.5927 263.93778 535.8371 260.7745 Z" fill="#eaebeb"/>
      </g>
      <g id="Graphic_7">
        <path d="M 575.70154 338.00146 C 580.8182 338.00146 585.5585 338.00146 590.5277 338.00146 C 590.5277 342.8109 590.5277 347.34464 590.5277 352.0648 C 562.8535 352.0648 535.31935 352.0648 507.4857 352.0648 C 507.4857 347.5799 507.4857 343.04418 507.4857 338.00146 C 530.05705 338.00146 552.6911 338.00146 575.70154 338.00146 Z" fill="#eaebeb"/>
      </g>
      <g id="Graphic_8">
        <path d="M 559.87093 377.8067 C 547.8146 382.27786 537.30974 380.34925 528.3946 371.41756 C 525.3803 368.39767 523.8995 364.505 523.66133 359.9521 C 540.5223 359.9521 557.12884 359.9521 574.0022 359.9521 C 573.0398 368.7802 567.8254 374.1948 559.87093 377.8067 Z" fill="#eaebeb"/>
      </g>
    </g>
  </g>
</svg>
