<?xml version="1.0" encoding="UTF-8" standalone="no"?>
<!DOCTYPE svg PUBLIC "-//W3C//DTD SVG 1.1//EN" "http://www.w3.org/Graphics/SVG/1.1/DTD/svg11.dtd">
<svg version="1.1" xmlns:xl="http://www.w3.org/1999/xlink" xmlns:dc="http://purl.org/dc/elements/1.1/" xmlns="http://www.w3.org/2000/svg" viewBox="661 212 180 180" width="180" height="180">
  <defs/>
  <g id="Canvas_1" stroke-dasharray="none" fill-opacity="1" fill="none" stroke-opacity="1" stroke="none">
    <title>Canvas 1</title>
    <rect fill="white" x="9223372036854775808e-2147483648" y="9223372036854775808e-2147483648" width="0" height="0"/>
    <g id="Canvas_1_Layer_1">
      <title>Layer 1</title>
      <g id="Graphic_13">
        <path d="M 767.161 392 C 756.3535 392 745.546 392 734.5715 391.72984 C 734.1402 391.20044 733.9106 390.7664 733.6069 390.7069 C 713.89236 386.84286 697.35575 377.5293 683.8013 362.6741 C 672.8212 350.6402 666.0118 336.6544 662.45534 320.925 C 662.3118 320.29003 661.5003 319.80492 661 319.25 C 661 308.48433 661 297.71866 661.2717 286.78603 C 661.8564 286.1175 662.2892 285.65403 662.4641 285.10852 C 664.6907 278.16448 666.2974 270.95563 669.2045 264.31022 C 674.71 251.72543 683.2571 241.31782 694.0328 232.65888 C 707.3725 221.93956 722.4571 215.5496 739.4354 213.44623 C 740.1927 213.3524 740.8552 212.4994 741.5619 212 C 747.35 212 753.1381 212 759.1308 212.2965 C 759.9703 212.89267 760.57615 213.33196 761.2447 213.47005 C 767.0076 214.66046 772.9497 215.274 778.5201 217.05006 C 793.2805 221.75625 806.3924 229.40858 816.4334 241.36232 C 821.7855 247.73395 827.1862 254.35006 830.9948 261.6668 C 840.2837 279.5119 843.0771 298.5896 839.4901 318.5521 C 836.4582 335.42565 829.2047 350.2559 817.749 362.85183 C 804.4649 377.4581 788.0823 387.01404 768.4067 390.56523 C 767.9204 390.653 767.5731 391.50464 767.161 392 Z M 737.8005 261.0779 C 736.5927 263.93778 735.3849 266.79765 734.17716 269.65752 C 732.5775 265.0098 732.0483 260.5388 730.9886 256.1962 C 729.9235 251.83127 728.4039 247.54717 723.8288 244.81206 C 725.72814 254.3282 721.82355 262.34386 718.9499 270.54403 C 715.38404 280.7194 712.14886 290.93167 716.7616 301.61532 C 718.4348 305.49068 720.5995 309.15548 722.6791 313.186 C 713.8781 311.3669 705.2746 309.58862 696.67115 307.81035 C 696.3182 308.2694 695.96525 308.7284 695.6123 309.18745 C 699.42925 314.97157 703.3277 320.70488 707.014 326.57046 C 708.134 328.35272 709.298 329.05618 711.442 329.0498 C 737.54015 328.97244 763.6388 329.03113 789.7367 328.91903 C 791.2568 328.9125 793.2443 328.1515 794.2098 327.045 C 799.1437 321.3906 803.1187 315.1118 805.5999 307.50855 C 795.9104 309.42696 786.536 311.283 776.613 313.24765 C 777.3738 311.78663 777.7235 310.86406 778.2785 310.08705 C 786.5369 298.52575 786.339 286.09374 781.6996 273.4369 C 779.9425 268.64338 776.6179 264.40362 774.9954 259.5817 C 772.9993 253.6493 772.0354 247.37225 770.5625 240.97118 C 763.3413 252.4149 763.2886 265.80432 761.3985 278.79253 C 760.88705 277.27002 760.64325 275.73958 760.3835 274.21182 C 759.134 266.8611 758.2935 259.40917 756.4998 252.19242 C 755.007 246.18602 752.1571 240.5263 750.373 234.5748 C 749.4519 231.50226 749.54185 228.12897 749.1647 224.80099 C 748.8347 224.96982 748.47 225.07255 748.2161 225.29876 C 743.0993 229.8572 741.5883 235.92554 740.7646 242.39307 C 739.994 248.44348 738.8521 254.44696 737.8005 261.0779 Z M 777.3252 338.00146 C 754.6911 338.00146 732.05705 338.00146 709.4857 338.00146 C 709.4857 343.04418 709.4857 347.5799 709.4857 352.0648 C 737.31935 352.0648 764.8535 352.0648 792.5277 352.0648 C 792.5277 347.34464 792.5277 342.8109 792.5277 338.00146 C 787.5585 338.00146 782.8182 338.00146 777.3252 338.00146 Z M 762.1669 377.76186 C 769.8254 374.1948 775.0398 368.7802 776.0022 359.9521 C 759.1288 359.9521 742.5223 359.9521 725.6613 359.9521 C 725.8995 364.505 727.3803 368.39767 730.3946 371.41756 C 739.3097 380.34925 749.8146 382.27786 762.1669 377.76186 Z" fill="#e6522b"/>
      </g>
      <g id="Graphic_12">
        <path d="M 737.8371 260.7745 C 738.8521 254.44696 739.994 248.44348 740.7646 242.39307 C 741.5883 235.92554 743.0993 229.8572 748.2161 225.29876 C 748.47 225.07255 748.8347 224.96982 749.1647 224.80099 C 749.54185 228.12897 749.4519 231.50226 750.373 234.5748 C 752.1571 240.5263 755.007 246.18602 756.4998 252.19242 C 758.2935 259.40917 759.134 266.8611 760.3835 274.21182 C 760.64325 275.73958 760.88705 277.27002 761.3985 278.79253 C 763.2886 265.80432 763.3413 252.4149 770.5625 240.97118 C 772.0354 247.37225 772.9993 253.6493 774.9954 259.5817 C 776.6179 264.40362 779.9425 268.64338 781.6996 273.4369 C 786.339 286.09374 786.5369 298.52575 778.2785 310.08705 C 777.7235 310.86406 777.3738 311.78663 776.613 313.24765 C 786.536 311.283 795.9104 309.42696 805.5999 307.50855 C 803.1187 315.1118 799.1437 321.3906 794.2098 327.045 C 793.2443 328.1515 791.2568 328.9125 789.7367 328.91903 C 763.6388 329.03113 737.54015 328.97244 711.442 329.0498 C 709.298 329.05618 708.134 328.35272 707.014 326.57046 C 703.3277 320.70488 699.42925 314.97157 695.6123 309.18745 C 695.96525 308.7284 696.3182 308.2694 696.67115 307.81035 C 705.2746 309.58862 713.8781 311.3669 722.6791 313.186 C 720.5995 309.15548 718.4348 305.49068 716.7616 301.61532 C 712.14886 290.93167 715.38404 280.7194 718.9499 270.54403 C 721.82355 262.34386 725.72814 254.3282 723.8288 244.81207 C 728.4039 247.54717 729.9235 251.83127 730.9886 256.1962 C 732.0483 260.5388 732.5775 265.0098 734.17716 269.65752 C 735.3849 266.79765 736.5927 263.93778 737.8371 260.7745 Z" fill="#eaebeb"/>
      </g>
      <g id="Graphic_11">
        <path d="M 777.7015 338.00146 C 782.8182 338.00146 787.5585 338.00146 792.5277 338.00146 C 792.5277 342.8109 792.5277 347.34464 792.5277 352.0648 C 764.8535 352.0648 737.31935 352.0648 709.4857 352.0648 C 709.4857 347.5799 709.4857 343.04418 709.4857 338.00146 C 732.05705 338.00146 754.6911 338.00146 777.7015 338.00146 Z" fill="#eaebeb"/>
      </g>
      <g id="Graphic_10">
        <path d="M 761.8709 377.8067 C 749.8146 382.27786 739.3097 380.34925 730.3946 371.41756 C 727.3803 368.39767 725.8995 364.505 725.6613 359.9521 C 742.5223 359.9521 759.1288 359.9521 776.0022 359.9521 C 775.0398 368.7802 769.8254 374.1948 761.8709 377.8067 Z" fill="#eaebeb"/>
      </g>
    </g>
  </g>
</svg>
