<svg version="1.1" id="Layer_1" xmlns="http://www.w3.org/2000/svg" xmlns:xlink="http://www.w3.org/1999/xlink" x="0px" y="0px"
	 width="100%" viewBox="0 0 221 220" enable-background="new 0 0 221 220" xml:space="preserve">
<path fill="#EE495E" opacity="1.000000" stroke="none" 
	d="
M222.000000,91.000000 
	C222.000000,104.020897 222.000000,117.041786 221.643066,130.285278 
	C220.859756,131.549591 220.247620,132.554779 220.034485,133.638458 
	C215.904526,154.637283 206.098526,172.782227 191.326859,188.000031 
	C175.681061,204.118332 156.733780,214.752151 134.479919,219.099564 
	C133.885559,219.215668 133.488876,220.343811 133.000000,221.000000 
	C119.312439,221.000000 105.624878,221.000000 91.779648,220.663574 
	C91.119049,219.916321 90.667427,219.241852 90.105843,219.132568 
	C64.351181,214.121979 43.276299,201.375031 26.597055,181.143051 
	C14.069096,165.946594 6.302257,148.658188 2.924979,129.306549 
	C2.775798,128.451767 1.663613,127.765022 0.999998,127.000000 
	C1.000000,116.645775 1.000000,106.291542 1.308635,95.827972 
	C2.071927,94.897171 2.807948,94.118431 2.940093,93.248016 
	C6.245829,71.473824 15.583970,52.464794 30.317953,36.351105 
	C46.320602,18.849955 66.073975,7.449371 89.559540,2.894988 
	C90.140343,2.782355 90.524261,1.654410 91.000000,1.000001 
	C104.687561,1.000000 118.375122,1.000000 132.221008,1.333900 
	C133.046188,2.098261 133.664810,2.786612 134.386902,2.921659 
	C155.091690,6.793941 172.975494,16.427666 188.065842,30.764065 
	C204.728104,46.593861 215.689224,65.923126 220.084564,88.723839 
	C220.248474,89.574043 221.340485,90.245331 222.000000,91.000000 
M125.867912,15.408345 
	C115.248833,15.633050 104.330971,14.330919 94.061165,16.340519 
	C43.195518,26.293938 10.645353,73.072685 17.791615,125.029861 
	C26.035805,184.969559 87.908394,224.684647 149.127747,200.213638 
	C177.912064,188.707779 208.844376,155.379150 207.710419,107.323738 
	C206.819397,69.562874 177.926559,23.146513 125.867912,15.408345 
z"/>
<path fill="#000000" opacity="1.000000" stroke="none" 
	d="
M90.531342,1.000001 
	C90.524261,1.654410 90.140343,2.782355 89.559540,2.894988 
	C66.073975,7.449371 46.320602,18.849955 30.317953,36.351105 
	C15.583970,52.464794 6.245829,71.473824 2.940093,93.248016 
	C2.807948,94.118431 2.071927,94.897171 1.308635,95.359314 
	C1.000000,63.741337 1.000000,32.482670 1.000000,1.000000 
	C30.687185,1.000000 60.374935,1.000000 90.531342,1.000001 
z"/>
<path fill="#000000" opacity="1.000000" stroke="none" 
	d="
M0.999998,127.468658 
	C1.663613,127.765022 2.775798,128.451767 2.924979,129.306549 
	C6.302257,148.658188 14.069096,165.946594 26.597055,181.143051 
	C43.276299,201.375031 64.351181,214.121979 90.105843,219.132568 
	C90.667427,219.241852 91.119049,219.916321 91.310989,220.663574 
	C61.071495,221.000000 31.142986,221.000000 1.000000,221.000000 
	C1.000000,189.979431 1.000000,158.958374 0.999998,127.468658 
z"/>
<path fill="#000000" opacity="1.000000" stroke="none" 
	d="
M222.000000,90.531342 
	C221.340485,90.245331 220.248474,89.574043 220.084564,88.723839 
	C215.689224,65.923126 204.728104,46.593861 188.065842,30.764065 
	C172.975494,16.427666 155.091690,6.793941 134.386902,2.921659 
	C133.664810,2.786612 133.046188,2.098261 132.689667,1.333900 
	C162.593979,1.000000 192.187973,1.000000 222.000000,1.000000 
	C222.000000,30.687204 222.000000,60.374943 222.000000,90.531342 
z"/>
<path fill="#000000" opacity="1.000000" stroke="none" 
	d="
M133.468658,221.000000 
	C133.488876,220.343811 133.885559,219.215668 134.479919,219.099564 
	C156.733780,214.752151 175.681061,204.118332 191.326859,188.000031 
	C206.098526,172.782227 215.904526,154.637283 220.034485,133.638458 
	C220.247620,132.554779 220.859756,131.549591 221.643066,130.753937 
	C222.000000,160.926498 222.000000,190.853012 222.000000,221.000000 
	C192.646133,221.000000 163.291733,221.000000 133.468658,221.000000 
z"/>
<path fill="#0752E7" opacity="1.000000" stroke="none" 
	d="
M126.313599,15.455921 
	C177.926559,23.146513 206.819397,69.562874 207.710419,107.323738 
	C208.844376,155.379150 177.912064,188.707779 149.127747,200.213638 
	C87.908394,224.684647 26.035805,184.969559 17.791615,125.029861 
	C10.645353,73.072685 43.195518,26.293938 94.061165,16.340519 
	C104.330971,14.330919 115.248833,15.633050 126.313599,15.455921 
M62.914806,58.901417 
	C62.914806,58.901417 62.883793,58.838600 63.510986,58.763042 
	C63.959503,58.140694 64.408020,57.518341 64.927536,56.910542 
	C64.927536,56.910542 64.889450,56.848869 65.578918,56.769642 
	C72.366821,52.397820 79.154716,48.025993 86.327492,43.639301 
	C86.327492,43.639301 86.712654,43.640606 87.437492,43.915543 
	C89.376816,43.161869 91.316139,42.408195 93.839981,41.492970 
	C94.241669,41.451725 94.643364,41.410477 95.656425,41.725464 
	C98.181450,40.996777 100.706474,40.268089 104.051476,39.423458 
	C105.708893,39.364834 107.366318,39.306206 109.589241,39.655811 
	C111.387833,39.521458 113.186432,39.387104 115.786629,39.217022 
	C117.119148,39.310707 118.451675,39.404392 120.180336,40.073887 
	C123.258781,40.551636 126.337234,41.029385 129.952103,41.516216 
	C130.297745,41.601650 130.643372,41.687084 131.350922,42.408504 
	C133.612350,43.358822 135.807556,44.580559 138.160751,45.154854 
	C139.512497,45.484745 141.773666,45.295376 142.487549,44.415997 
	C144.443848,42.006199 145.985641,39.192238 147.269348,36.347748 
	C147.626984,35.555267 146.837601,33.448044 146.029419,33.049686 
	C137.853500,29.019764 129.423645,25.803253 119.088417,26.699184 
	C113.714424,26.700148 108.340439,26.701111 102.336670,26.300917 
	C91.425270,26.842384 81.387436,30.305937 72.055931,35.774090 
	C68.758186,37.706539 65.897766,40.385273 62.443142,43.134163 
	C61.946236,43.411739 61.449333,43.689312 60.253216,44.004734 
	C56.900837,47.396393 53.548458,50.788052 50.009724,54.044941 
	C50.009724,54.044941 50.186321,54.193848 49.532139,54.268250 
	C48.977863,55.121536 48.423584,55.974827 47.906113,56.882233 
	C47.906113,56.882233 47.841045,56.889278 47.214157,57.014839 
	C46.436897,57.991291 45.659637,58.967743 44.344772,60.337257 
	C41.319599,65.246490 37.739120,69.910240 35.429226,75.135666 
	C33.226364,80.118965 32.348061,85.687790 30.848701,91.606812 
	C30.790243,92.008339 30.731787,92.409866 30.059593,93.169426 
	C29.633900,97.111984 29.208206,101.054535 28.789204,105.919052 
	C28.794846,109.616142 28.800489,113.313225 28.407642,117.667656 
	C29.159439,121.176567 29.911236,124.685471 30.756899,128.795090 
	C30.791258,129.198883 30.825615,129.602676 30.549828,130.582886 
	C31.359047,133.055359 32.168266,135.527847 33.095924,138.675079 
	C33.424282,139.747986 33.752640,140.820908 34.078625,142.659973 
	C36.674183,149.612640 39.227509,156.591660 45.859299,161.573456 
	C45.859299,161.573456 45.986069,162.019775 45.970600,162.646225 
	C46.578091,163.140686 47.185577,163.635147 47.870953,164.152069 
	C47.870953,164.152069 47.847069,164.229538 47.810993,164.932037 
	C52.172123,168.980682 56.533253,173.029327 60.972736,177.028503 
	C60.972736,177.028503 60.923367,177.106918 61.045128,177.769760 
	C67.359962,181.527603 73.674797,185.285431 80.637634,189.327576 
	C81.764427,189.546555 82.891212,189.765518 84.445915,190.087082 
	C84.445915,190.087082 84.855820,190.247147 84.973381,190.940826 
	C87.306908,191.406845 89.640442,191.872879 92.571327,192.375641 
	C92.960068,192.463837 93.348808,192.552048 94.159866,193.196625 
	C97.245560,193.621399 100.331245,194.046173 104.297432,194.436325 
	C109.402397,194.459503 114.507370,194.482697 120.465546,194.849640 
	C123.730606,194.105408 126.995674,193.361176 130.839554,192.451813 
	C131.236481,192.399414 131.633392,192.347015 132.609131,192.667038 
	C142.522858,190.773590 151.514069,186.975342 158.998779,180.000610 
	C158.998779,180.000610 158.924667,179.922653 159.634552,179.972824 
	C162.075165,177.970398 164.515762,175.967957 167.453094,173.522659 
	C170.252228,170.314499 173.051361,167.106339 175.924850,163.906937 
	C175.924850,163.906937 175.890732,163.840286 176.481766,163.735779 
	C176.833084,163.095840 177.184402,162.455902 177.811539,161.413559 
	C177.811539,161.413559 177.968658,160.951706 178.635986,160.833923 
	C180.741776,157.693832 183.019531,154.654007 184.920258,151.394363 
	C190.074768,142.554703 193.335632,133.005142 194.695206,122.872673 
	C194.941971,121.033669 196.225174,117.684639 191.188904,118.206825 
	C190.499619,118.240112 189.810349,118.273392 188.324203,117.973183 
	C185.589691,118.377708 181.026627,115.877022 181.766235,122.569374 
	C181.759796,122.948044 181.753357,123.326706 181.184265,124.170280 
	C180.814392,126.125587 180.444519,128.080887 179.888412,130.679611 
	C179.811951,131.344330 179.735474,132.009048 179.020981,132.945755 
	C177.239334,136.646545 175.724228,140.507828 173.614624,144.011154 
	C170.315628,149.489624 166.614334,154.725861 163.004425,160.026199 
	C163.004425,160.026199 163.068954,160.086472 162.401001,160.200943 
	C153.555969,168.122086 144.117477,175.049026 132.440659,178.294785 
	C128.807678,179.304626 125.213615,180.454529 121.070534,181.522476 
	C120.721008,181.576736 120.371475,181.631012 119.296852,181.307892 
	C114.186745,181.440216 109.076645,181.572540 103.443291,181.610687 
	C103.089890,181.593933 102.736496,181.577179 101.900841,181.028061 
	C94.564354,178.558228 87.014961,176.571289 79.960785,173.461136 
	C74.608322,171.101273 69.886475,167.311066 64.917419,164.093262 
	C64.917419,164.093262 64.846909,164.109039 64.831032,163.488708 
	C64.172119,163.060455 63.513214,162.632202 62.875683,162.139130 
	C62.875683,162.139130 62.808250,162.128616 62.825508,161.494812 
	C62.169128,161.064621 61.512749,160.634445 60.868084,160.136520 
	C60.868084,160.136520 60.799351,160.135284 60.790295,159.508072 
	C60.167850,159.037628 59.545406,158.567184 58.987312,158.034393 
	C58.987312,158.034393 58.905613,158.070862 58.933697,157.367889 
	C54.591694,150.582779 50.249691,143.797668 45.858032,136.395706 
	C45.773533,135.992523 45.689034,135.589340 45.788811,134.505508 
	C45.138073,133.345032 44.487339,132.184570 43.792328,130.408890 
	C43.706593,130.007172 43.620857,129.605438 43.766068,128.413742 
	C43.098064,125.953606 42.430061,123.493462 41.767834,120.264832 
	C41.685982,119.244537 41.604130,118.224236 41.822014,116.287041 
	C41.741634,111.793777 41.661255,107.300507 41.677086,102.199562 
	C41.685593,101.789688 41.694099,101.379814 42.162586,100.375801 
	C42.625008,97.515160 43.087433,94.654518 43.699005,91.199234 
	C43.741184,90.793098 43.783363,90.386955 44.412407,89.593834 
	C44.808014,88.331009 45.203621,87.068176 45.772213,85.213463 
	C45.837265,84.807877 45.902313,84.402283 46.541515,83.619698 
	C50.671906,76.728767 54.802296,69.837845 59.001358,62.990059 
	C59.001358,62.990059 58.944771,62.931221 59.578049,62.861839 
	C59.980427,62.192909 60.382805,61.523979 60.857300,60.845337 
	C60.857300,60.845337 60.846691,60.773357 61.473385,60.719845 
	C61.930870,60.109592 62.388359,59.499344 62.914806,58.901417 
M88.097000,61.797737 
	C88.097000,61.797737 88.288506,61.369419 88.391296,62.008556 
	C88.886978,62.703087 89.382668,63.397617 89.809853,64.773811 
	C90.691444,65.679893 91.573036,66.585968 92.592659,67.843285 
	C92.592659,67.843285 92.819054,68.145210 92.801735,68.853874 
	C94.433136,71.578285 96.208244,71.919754 98.846779,69.116058 
	C99.506630,68.955505 100.166481,68.794960 101.576485,68.868584 
	C103.385048,68.595711 105.193619,68.322830 107.658798,68.459442 
	C110.439720,68.298988 113.220642,68.138542 116.809647,68.044151 
	C118.926254,68.254753 121.042870,68.465363 123.747932,68.864105 
	C124.134109,69.002769 124.520287,69.141434 125.011124,69.781029 
	C125.684517,69.546883 126.357903,69.312737 127.397011,68.670006 
	C127.714890,68.229141 128.032776,67.788277 128.945236,67.031441 
	C130.191803,64.447861 131.438370,61.864292 132.684952,59.280724 
	C130.379089,58.366280 128.073227,57.451839 125.181396,56.371239 
	C124.777962,56.336342 124.374535,56.301445 123.397240,55.766060 
	C115.563019,53.639935 107.756905,52.879555 99.419464,56.259640 
	C99.018349,56.346096 98.617233,56.432552 97.482513,56.254093 
	C95.646561,57.074211 93.810616,57.894333 91.592209,58.715912 
	C91.238838,58.850029 90.885468,58.984142 89.843056,59.015743 
	C89.245499,59.357777 88.647942,59.699814 87.603195,60.101665 
	C87.611877,60.679161 87.620552,61.256660 88.097000,61.797737 
M167.000916,47.999199 
	C167.000916,47.999199 167.106934,47.889160 167.035767,47.226505 
	C165.652557,46.204357 164.269333,45.182213 162.630753,43.869411 
	C162.630753,43.869411 162.297913,43.672199 162.076859,43.105453 
	C160.075485,40.639553 158.288025,41.736115 156.866806,43.636650 
	C155.593887,45.338894 154.676025,47.304890 153.580673,49.142097 
	C151.714142,52.272797 152.759720,54.061096 156.137070,54.853405 
	C156.137070,54.853405 156.201889,54.838150 156.294556,55.504936 
	C158.479492,57.389000 160.664429,59.273064 163.110535,61.626854 
	C163.452438,62.033318 163.794327,62.439781 164.231857,63.535004 
	C166.552490,66.292816 168.873123,69.050621 171.006775,71.938644 
	C171.006775,71.938644 171.202850,71.826324 171.109772,72.561905 
	C173.943130,78.104225 176.776489,83.646545 179.755356,89.786812 
	C179.793808,90.194817 179.832245,90.602814 179.549988,91.576767 
	C180.242859,93.777283 180.935715,95.977798 181.754379,98.936554 
	C181.813004,99.959908 181.871643,100.983253 181.593124,102.567200 
	C181.745178,103.342735 181.868454,104.787514 182.053528,104.795479 
	C186.168793,104.972473 190.291183,105.009445 194.410095,104.942108 
	C194.523254,104.940254 194.612793,103.493103 194.669540,101.997681 
	C194.629135,100.793861 194.588730,99.590042 194.852432,97.564774 
	C194.154053,95.039986 193.455673,92.515205 192.628586,89.472321 
	C192.589340,89.119003 192.550095,88.765694 192.768677,87.619980 
	C190.971146,82.696915 189.553391,77.587555 187.258270,72.908562 
	C185.354385,69.027168 182.417053,65.652695 179.879700,62.103554 
	C179.879700,62.103554 179.808121,62.130241 179.879181,61.426796 
	C176.991791,58.221214 174.104401,55.015636 171.083435,51.916122 
	C171.083435,51.916122 171.189728,51.782726 171.133423,51.115334 
	C169.792282,50.040951 168.451126,48.966572 167.000916,47.999199 
M136.424149,145.338074 
	C134.529617,146.811508 132.635086,148.284958 130.059357,149.921066 
	C126.699677,151.043030 123.339989,152.165009 119.642296,152.750000 
	C118.431389,153.170059 117.220474,153.590118 115.110092,154.027954 
	C112.414650,154.010223 109.719208,153.992493 106.716660,153.334290 
	C101.030067,151.433380 95.343468,149.532471 89.169792,147.351837 
	C88.855476,147.148499 88.541161,146.945160 88.091049,146.090988 
	C85.436928,144.019699 82.782806,141.948425 79.947708,139.522919 
	C79.947708,139.522919 79.727158,139.191910 79.755127,138.561951 
	C79.123695,138.097382 78.492256,137.632797 77.620064,136.665390 
	C77.356232,136.174377 77.092400,135.683350 76.821503,134.441376 
	C76.278694,133.057373 75.868858,131.602280 75.172585,130.300354 
	C67.955956,116.806320 68.183273,103.420135 75.587967,90.078354 
	C77.084671,87.381584 78.434578,84.603340 80.000412,81.987679 
	C80.000412,81.987679 79.856064,81.855835 80.513733,81.755104 
	C84.576218,78.235237 84.538528,77.449730 79.938034,73.574364 
	C79.938034,73.574364 79.812729,73.200706 79.862556,72.542419 
	C79.226540,72.039436 78.590530,71.536461 77.743217,70.717697 
	C77.743217,70.717697 77.625488,70.356445 77.701385,69.676483 
	C76.481674,69.384224 74.613258,68.446449 74.152534,68.909447 
	C71.946503,71.126366 70.121712,73.722656 68.013512,76.515244 
	C68.013512,76.515244 67.870392,76.848480 67.216148,77.008301 
	C65.880852,79.379272 64.545555,81.750252 62.979458,84.634323 
	C62.895901,84.999397 62.812344,85.364471 62.083492,85.988800 
	C56.012943,96.668274 54.938236,108.169609 56.627705,120.073074 
	C56.794495,121.248238 57.878490,122.293221 58.553101,123.933632 
	C58.621368,124.283371 58.689636,124.633102 58.453972,125.512062 
	C59.150188,127.140610 59.846405,128.769165 60.614128,130.940811 
	C60.713245,131.291931 60.812363,131.643051 60.629810,132.442917 
	C61.329082,133.386276 62.028351,134.329651 62.798180,135.837784 
	C62.907261,136.199997 63.016342,136.562225 63.056717,137.646515 
	C65.746819,141.039688 68.436920,144.432877 71.107971,147.893082 
	C71.107971,147.893082 71.175362,147.875366 71.174767,148.562988 
	C78.020256,156.893021 86.499168,162.518799 97.949387,164.529922 
	C98.640419,164.614349 99.331444,164.698776 100.560310,165.331055 
	C108.429405,167.905319 116.248749,168.427811 124.580544,164.744141 
	C124.980362,164.657883 125.380173,164.571640 126.525581,164.742477 
	C128.578812,164.139938 130.738342,163.770920 132.666412,162.893372 
	C139.999908,159.555649 147.423523,156.277954 152.115234,148.440125 
	C152.340942,148.158905 152.566635,147.877670 153.458099,147.675735 
	C155.147247,145.369675 156.836411,143.063629 158.790955,140.260178 
	C158.921951,139.908096 159.052948,139.556015 159.861176,139.045792 
	C167.739426,126.802719 168.489563,113.293816 166.780060,99.392601 
	C166.634262,98.206879 165.580780,97.132767 164.909042,95.384872 
	C164.831268,94.977188 164.753479,94.569504 164.879379,93.452774 
	C164.189041,91.976395 163.498703,90.500015 162.731613,88.469658 
	C162.440460,88.010643 162.149307,87.551628 161.933502,86.433403 
	C161.610458,85.631302 161.287399,84.829201 160.999771,83.285629 
	C158.924225,80.601036 156.848679,77.916443 154.970734,75.049042 
	C154.970734,75.049042 154.760269,75.216324 154.822815,74.514091 
	C152.395905,71.864899 150.057327,69.124626 147.482697,66.627754 
	C146.801910,65.967529 145.214584,65.567688 144.349182,65.884140 
	C139.550842,67.638710 138.367447,76.650101 141.284683,80.867821 
	C145.355606,86.753563 148.600952,93.238861 151.872833,99.634743 
	C153.186340,102.202408 153.633102,105.213470 154.608948,108.840027 
	C154.564270,110.216110 154.519577,111.592201 153.911942,113.513542 
	C152.337601,123.184540 148.294846,131.832214 143.000305,139.995071 
	C143.000305,139.995071 142.942596,139.957321 142.322556,140.113785 
	C141.926239,140.802048 141.529938,141.490326 140.811447,142.602753 
	C140.352798,142.866928 139.894150,143.131119 138.787140,143.316971 
	C138.203522,143.890320 137.619904,144.463684 136.424149,145.338074 
M126.812492,119.459145 
	C126.815750,121.455887 126.941055,123.461411 126.798325,125.447662 
	C126.436836,130.478333 129.926605,129.968292 133.124283,130.012695 
	C136.410263,130.058334 139.491272,130.333832 139.378906,125.370880 
	C139.156784,115.558571 139.129425,105.732697 139.390427,95.922256 
	C139.532104,90.596649 136.176559,91.165794 132.791077,91.090599 
	C129.302612,91.013130 126.573029,91.246246 126.746483,96.008789 
	C127.018845,103.486618 126.814758,110.981789 126.812492,119.459145 
M113.395752,129.994873 
	C116.755981,130.329132 118.209732,128.959122 118.134789,125.442200 
	C117.972015,117.804001 117.840462,110.149002 118.176979,102.522079 
	C118.395180,97.576729 115.506905,97.666336 112.137390,97.740837 
	C108.778954,97.815094 105.298050,97.248627 105.501648,102.568741 
	C105.761917,109.369804 105.547890,116.188499 105.564804,122.999535 
	C105.581909,129.890213 105.608818,129.903030 113.395752,129.994873 
M85.650276,108.238304 
	C85.235405,114.861694 84.748405,121.482666 84.526054,128.112518 
	C84.505600,128.722366 86.089447,129.735703 87.071022,129.973999 
	C94.760010,131.840714 96.930122,130.115906 96.934837,122.341454 
	C96.935738,120.846550 96.935097,119.351646 96.935013,117.856743 
	C96.934433,107.272514 96.934418,107.272514 85.650276,108.238304 
z"/>
<path fill="#F5F7FD" opacity="1.000000" stroke="none" 
	d="
M84.855820,190.247147 
	C84.855820,190.247147 84.445915,190.087082 84.121498,189.715576 
	C82.529587,188.900696 81.262085,188.457306 79.730621,187.799683 
	C73.285553,184.092606 67.104462,180.599762 60.923367,177.106918 
	C60.923367,177.106918 60.972736,177.028503 60.894264,176.722107 
	C56.492882,172.353638 52.169975,168.291595 47.847069,164.229538 
	C47.847069,164.229538 47.870953,164.152069 47.846603,163.829041 
	C47.210190,163.010605 46.598129,162.515182 45.986069,162.019775 
	C45.986069,162.019775 45.859299,161.573456 45.754322,161.029266 
	C44.487514,158.704712 43.287678,156.947800 42.171387,155.139328 
	C39.453957,150.736893 36.775280,146.310532 34.080994,141.893814 
	C33.752640,140.820908 33.424282,139.747986 33.160133,138.049927 
	C32.436214,134.951996 31.648094,132.479233 30.859974,130.006470 
	C30.825615,129.602676 30.791258,129.198883 30.833900,128.068588 
	C30.209312,123.898163 29.507723,120.454239 28.806133,117.010315 
	C28.800489,113.313225 28.794846,109.616142 28.993687,105.141693 
	C29.689890,100.513359 30.181610,96.662376 30.673328,92.811394 
	C30.731787,92.409866 30.790243,92.008339 31.109093,91.036591 
	C36.239441,80.308769 41.109398,70.151169 46.197617,59.758713 
	C46.890934,58.645668 47.365990,57.767471 47.841045,56.889278 
	C47.841045,56.889278 47.906113,56.882233 48.199661,56.770058 
	C49.057579,55.836540 49.621948,55.015194 50.186321,54.193848 
	C50.186321,54.193848 50.009724,54.044941 50.442551,54.077923 
	C54.234394,50.729565 57.593410,47.348225 60.952431,43.966888 
	C61.449333,43.689312 61.946236,43.411739 62.990303,42.892418 
	C72.747429,38.370403 81.878876,33.907360 91.206261,29.900425 
	C94.902229,28.312679 99.033417,27.738005 102.966446,26.702076 
	C108.340439,26.701111 113.714424,26.700148 119.840836,26.936230 
	C127.120842,28.879320 133.776642,30.211866 140.140106,32.396042 
	C146.554688,34.597755 146.900238,36.216465 142.567200,41.318058 
	C141.520081,42.550915 138.964798,42.883873 137.086960,42.926792 
	C135.064163,42.973022 133.022461,42.192402 130.989014,41.772518 
	C130.643372,41.687084 130.297745,41.601650 129.447693,41.245552 
	C125.890251,40.482616 122.837227,39.990349 119.784195,39.498081 
	C118.451675,39.404392 117.119148,39.310707 115.100662,39.035782 
	C112.617706,38.985554 110.820724,39.116566 109.023735,39.247578 
	C107.366318,39.306206 105.708893,39.364834 103.246635,39.323437 
	C99.976219,39.938690 97.510635,40.653961 95.045052,41.369232 
	C94.643364,41.410477 94.241669,41.451725 93.202057,41.449272 
	C90.613640,42.150585 88.663147,42.895592 86.712654,43.640602 
	C86.712654,43.640606 86.327492,43.639301 85.863968,43.486130 
	C77.493500,46.214581 69.976425,49.687832 64.889450,56.848869 
	C64.889450,56.848869 64.927536,56.910542 64.582993,56.932735 
	C63.786903,57.582821 63.335350,58.210709 62.883793,58.838600 
	C62.883793,58.838600 62.914806,58.901417 62.572556,58.918159 
	C61.769104,59.547722 61.307899,60.160542 60.846695,60.773361 
	C60.846691,60.773357 60.857300,60.845337 60.513493,60.896042 
	C59.761379,61.608238 59.353077,62.269730 58.944771,62.931221 
	C58.944771,62.931221 59.001358,62.990059 58.627720,63.007744 
	C52.097679,68.808449 47.411274,75.452705 45.967369,83.996696 
	C45.902313,84.402283 45.837265,84.807877 45.388115,85.575821 
	C44.611187,87.285728 44.218365,88.633270 43.825542,89.980820 
	C43.783363,90.386955 43.741184,90.793098 43.330627,91.671043 
	C42.542366,95.085213 42.122486,98.027580 41.702606,100.969940 
	C41.694099,101.379814 41.685593,101.789688 41.335754,102.733437 
	C41.170368,107.912857 41.346321,112.558395 41.522274,117.203941 
	C41.604130,118.224236 41.685982,119.244537 41.561798,120.934982 
	C42.082211,124.138000 42.808666,126.670860 43.535118,129.203720 
	C43.620857,129.605438 43.706593,130.007172 43.631538,130.947144 
	C44.182011,132.718994 44.893272,133.952576 45.604534,135.186157 
	C45.689034,135.589340 45.773533,135.992523 45.735489,136.966537 
	C48.378185,145.460144 51.656410,153.050842 58.905613,158.070862 
	C58.905613,158.070862 58.987312,158.034393 58.961384,158.377533 
	C59.556755,159.192200 60.178051,159.663742 60.799351,160.135284 
	C60.799351,160.135284 60.868084,160.136520 60.883865,160.477539 
	C61.535851,161.255249 62.172047,161.691940 62.808250,162.128616 
	C62.808250,162.128616 62.875683,162.139130 62.888187,162.480957 
	C63.549431,163.251541 64.198166,163.680298 64.846909,164.109039 
	C64.846909,164.109039 64.917419,164.093262 64.942749,164.460999 
	C71.078232,168.982773 76.795319,173.993027 83.416977,177.032806 
	C89.210831,179.692566 96.021568,180.137207 102.383095,181.560410 
	C102.736496,181.577179 103.089890,181.593933 104.037178,181.906982 
	C109.761360,182.030594 114.891655,181.857941 120.021950,181.685272 
	C120.371475,181.631012 120.721008,181.576736 121.758270,181.702072 
	C133.866348,181.037537 144.007126,176.677155 153.080658,169.994186 
	C156.816116,167.242874 159.763245,163.421265 163.068954,160.086472 
	C163.068954,160.086472 163.004425,160.026199 163.385193,160.018814 
	C171.974060,152.590881 177.382202,143.542542 179.658997,132.673767 
	C179.735474,132.009048 179.811951,131.344330 180.315979,130.187164 
	C181.078003,127.698280 181.412445,125.701828 181.746918,123.705376 
	C181.753357,123.326706 181.759796,122.948044 182.126251,122.080856 
	C184.697876,120.497116 186.909470,119.401894 189.121063,118.306671 
	C189.810349,118.273392 190.499619,118.240112 191.637634,118.616959 
	C191.060013,125.433250 190.915924,132.151337 188.788574,138.168228 
	C186.001053,146.052338 181.648209,153.382996 177.968658,160.951706 
	C177.968658,160.951706 177.811539,161.413559 177.385071,161.669281 
	C176.602631,162.563431 176.246674,163.201859 175.890732,163.840286 
	C175.890732,163.840286 175.924850,163.906937 175.543823,163.915436 
	C171.820770,167.317154 168.478760,170.710358 164.905792,174.344879 
	C162.758118,176.364990 160.841400,178.143829 158.924683,179.922668 
	C158.924667,179.922653 158.998779,180.000610 158.596680,179.924713 
	C152.157272,182.851120 146.141525,185.898010 140.072647,188.835068 
	C137.448410,190.105072 134.714432,191.148346 132.030319,192.294617 
	C131.633392,192.347015 131.236481,192.399414 130.147614,192.380875 
	C126.174553,193.041916 122.893440,193.773895 119.612335,194.505859 
	C114.507370,194.482697 109.402397,194.459503 103.626495,194.178986 
	C99.882889,193.494522 96.810226,193.067383 93.737556,192.640259 
	C93.348808,192.552048 92.960068,192.463837 92.030197,192.072601 
	C89.277985,191.262085 87.066902,190.754623 84.855820,190.247147 
z"/>
<path fill="#F2F6FD" opacity="1.000000" stroke="none" 
	d="
M107.023766,153.974762 
	C109.719208,153.992493 112.414650,154.010223 115.893913,154.182709 
	C117.778595,153.987289 118.879448,153.637131 119.980309,153.286972 
	C123.339989,152.165009 126.699677,151.043030 130.755112,149.891510 
	C133.715378,148.376740 135.979904,146.891525 138.465302,145.198029 
	C138.935959,144.458252 139.185730,143.926773 139.435501,143.395294 
	C139.894150,143.131119 140.352798,142.866928 141.315353,142.383423 
	C142.193710,141.428497 142.568146,140.692917 142.942596,139.957321 
	C142.942596,139.957321 143.000305,139.995071 143.315399,139.909546 
	C150.680161,132.259109 155.444748,123.771484 154.474884,112.968285 
	C154.519577,111.592201 154.564270,110.216110 154.736481,108.095444 
	C154.805298,96.321671 149.867371,87.376869 142.598083,79.598969 
	C140.317108,77.158394 139.485458,75.263451 141.756424,72.477539 
	C142.952560,71.010139 143.745148,69.213783 145.064178,66.984077 
	C148.618698,70.001961 151.689484,72.609146 154.760269,75.216324 
	C154.760269,75.216324 154.970734,75.049042 154.901886,75.486801 
	C156.563461,78.609947 158.293884,81.295349 160.026428,84.311569 
	C160.638428,85.459129 161.248276,86.275879 161.858139,87.092621 
	C162.149307,87.551628 162.440460,88.010643 162.635620,89.006638 
	C163.251663,91.083008 163.963684,92.622414 164.675705,94.161819 
	C164.753479,94.569504 164.831268,94.977188 164.772644,95.992668 
	C166.263306,105.829552 167.076675,115.073524 164.295929,124.220039 
	C162.761765,129.266312 160.898727,134.212585 159.183929,139.203934 
	C159.052948,139.556015 158.921951,139.908096 158.328903,140.535797 
	C156.175339,143.073090 154.483841,145.334763 152.792343,147.596451 
	C152.566635,147.877670 152.340942,148.158905 151.620697,148.705124 
	C144.978638,153.003143 138.872986,157.102325 132.660721,161.033081 
	C130.502914,162.398422 128.081192,163.346664 125.779999,164.485382 
	C125.380173,164.571640 124.980362,164.657883 123.944931,164.564819 
	C115.547035,164.518082 107.784752,164.650635 100.022476,164.783203 
	C99.331444,164.698776 98.640419,164.614349 97.482452,164.127121 
	C90.959740,160.465027 84.815010,157.357330 78.887291,153.879745 
	C76.101318,152.245331 73.732964,149.899063 71.175362,147.875366 
	C71.175362,147.875366 71.107971,147.893082 71.089264,147.515289 
	C68.422180,143.733139 65.773804,140.328796 63.125427,136.924438 
	C63.016342,136.562225 62.907261,136.199997 62.832611,135.217316 
	C62.215191,133.729294 61.563335,132.861740 60.911480,131.994171 
	C60.812363,131.643051 60.713245,131.291931 60.695442,130.300629 
	C60.103806,128.101257 59.430855,126.542046 58.757908,124.982841 
	C58.689636,124.633102 58.621368,124.283371 58.680328,123.221237 
	C58.844944,115.128151 58.428101,107.707169 59.078091,100.380829 
	C59.517498,95.428093 61.459103,90.608620 62.728790,85.729546 
	C62.812344,85.364471 62.895901,84.999397 63.424843,84.309143 
	C65.203613,81.605461 66.537003,79.226974 67.870392,76.848480 
	C67.870392,76.848480 68.013512,76.515244 68.418724,76.282623 
	C71.757790,74.152145 74.691635,72.254295 77.625488,70.356445 
	C77.625488,70.356445 77.743217,70.717697 77.842422,71.194412 
	C78.565323,72.180992 79.189026,72.690849 79.812729,73.200706 
	C79.812729,73.200706 79.938034,73.574364 80.029144,74.133598 
	C80.032196,77.080498 79.944130,79.468170 79.856064,81.855835 
	C79.856064,81.855835 80.000412,81.987679 79.594688,81.988358 
	C69.099976,93.072723 66.365746,106.282463 69.391739,120.459770 
	C70.502251,125.662697 74.271896,130.298065 76.828568,135.192337 
	C77.092400,135.683350 77.356232,136.174377 77.733253,137.231689 
	C78.473343,138.262634 79.100250,138.727264 79.727158,139.191910 
	C79.727158,139.191910 79.947708,139.522919 80.016861,140.047424 
	C82.799622,142.628555 85.513229,144.685196 88.226845,146.741821 
	C88.541161,146.945160 88.855476,147.148499 89.541412,147.794037 
	C95.025291,151.912231 100.534058,154.405960 107.023766,153.974762 
z"/>
<path fill="#F1F5FD" opacity="1.000000" stroke="none" 
	d="
M179.870697,91.010818 
	C179.832245,90.602814 179.793808,90.194817 179.769318,89.113815 
	C176.923141,82.902649 174.063004,77.364487 171.202850,71.826324 
	C171.202850,71.826324 171.006775,71.938644 171.128998,71.518356 
	C168.879547,68.347466 166.507889,65.596855 164.136230,62.846245 
	C163.794327,62.439781 163.452438,62.033318 162.942139,61.044174 
	C160.583115,58.587048 158.392502,56.712597 156.201889,54.838150 
	C156.201889,54.838150 156.137070,54.853405 156.072037,54.460548 
	C154.171814,48.774319 156.563614,44.821960 162.297913,43.672199 
	C162.297913,43.672199 162.630753,43.869411 162.774765,44.355507 
	C164.314835,45.857456 165.710876,46.873310 167.106934,47.889160 
	C167.106934,47.889160 167.000916,47.999199 167.056671,48.292950 
	C168.471527,49.652042 169.830627,50.717384 171.189728,51.782726 
	C171.189728,51.782726 171.083435,51.916122 171.137009,52.212906 
	C174.063095,55.716537 176.935608,58.923389 179.808121,62.130241 
	C179.808121,62.130241 179.879700,62.103554 179.877441,62.440826 
	C182.629715,68.059998 185.451813,73.308151 188.113434,78.636459 
	C189.708862,81.830353 191.053497,85.149521 192.510834,88.412384 
	C192.550095,88.765694 192.589340,89.119003 192.538452,90.028740 
	C193.148315,93.185516 193.848312,95.785873 194.548309,98.386223 
	C194.588730,99.590042 194.629135,100.793861 194.336243,102.550217 
	C189.786545,104.854172 185.692810,105.254211 181.930283,102.006607 
	C181.871643,100.983253 181.813004,99.959908 181.815491,98.176056 
	C181.207962,95.280647 180.539322,93.145729 179.870697,91.010818 
z"/>
<path fill="#E7EEFC" opacity="1.000000" stroke="none" 
	d="
M126.812462,118.964386 
	C126.814758,110.981789 127.018845,103.486618 126.746483,96.008789 
	C126.573029,91.246246 129.302612,91.013130 132.791077,91.090599 
	C136.176559,91.165794 139.532104,90.596649 139.390427,95.922256 
	C139.129425,105.732697 139.156784,115.558571 139.378906,125.370880 
	C139.491272,130.333832 136.410263,130.058334 133.124283,130.012695 
	C129.926605,129.968292 126.436836,130.478333 126.798325,125.447662 
	C126.941055,123.461411 126.815750,121.455887 126.812462,118.964386 
z"/>
<path fill="#E7EEFC" opacity="1.000000" stroke="none" 
	d="
M112.947067,129.998657 
	C105.608818,129.903030 105.581909,129.890213 105.564804,122.999535 
	C105.547890,116.188499 105.761917,109.369804 105.501648,102.568741 
	C105.298050,97.248627 108.778954,97.815094 112.137390,97.740837 
	C115.506905,97.666336 118.395180,97.576729 118.176979,102.522079 
	C117.840462,110.149002 117.972015,117.804001 118.134789,125.442200 
	C118.209732,128.959122 116.755981,130.329132 112.947067,129.998657 
z"/>
<path fill="#F6F8FD" opacity="1.000000" stroke="none" 
	d="
M123.971100,56.266552 
	C124.374535,56.301445 124.777962,56.336342 125.604477,56.749096 
	C127.504089,58.069099 128.980621,59.011246 130.428925,59.935387 
	C129.715927,62.478249 129.033295,64.912827 128.350647,67.347404 
	C128.032776,67.788277 127.714890,68.229141 126.856636,68.777794 
	C125.846329,69.017090 125.376396,69.148598 124.906464,69.280106 
	C124.520287,69.141434 124.134109,69.002769 123.322342,68.464386 
	C120.600723,67.685089 118.304688,67.305504 115.558319,66.904633 
	C112.404121,66.912231 109.700264,66.941101 106.727608,66.806877 
	C104.581314,67.307320 102.703827,67.970863 100.826332,68.634407 
	C100.166481,68.794960 99.506630,68.955505 98.140419,69.007019 
	C95.895721,68.647064 94.357391,68.396141 92.819054,68.145210 
	C92.819054,68.145210 92.592659,67.843285 92.598984,67.322388 
	C91.696327,65.898369 90.787338,64.995262 89.878357,64.092148 
	C89.382668,63.397617 88.886978,62.703087 88.649376,61.632111 
	C89.449005,60.543201 89.990555,59.830734 90.532104,59.118263 
	C90.885468,58.984142 91.238838,58.850029 92.089752,58.849640 
	C94.463562,58.161919 96.339844,57.340466 98.216118,56.519009 
	C98.617233,56.432552 99.018349,56.346096 100.067184,56.441341 
	C108.466972,56.504211 116.219040,56.385380 123.971100,56.266552 
z"/>
<path fill="#DFE8FC" opacity="1.000000" stroke="none" 
	d="
M86.034058,108.083961 
	C96.934418,107.272514 96.934433,107.272514 96.935013,117.856743 
	C96.935097,119.351646 96.935738,120.846550 96.934837,122.341454 
	C96.930122,130.115906 94.760010,131.840714 87.071022,129.973999 
	C86.089447,129.735703 84.505600,128.722366 84.526054,128.112518 
	C84.748405,121.482666 85.235405,114.861694 86.034058,108.083961 
z"/>
<path fill="#588AEF" opacity="1.000000" stroke="none" 
	d="
M154.791534,74.865204 
	C151.689484,72.609146 148.618698,70.001961 145.064178,66.984077 
	C143.745148,69.213783 142.952560,71.010139 141.756424,72.477539 
	C139.485458,75.263451 140.317108,77.158394 142.598083,79.598969 
	C149.867371,87.376869 154.805298,96.321671 154.669189,107.686798 
	C153.633102,105.213470 153.186340,102.202408 151.872833,99.634743 
	C148.600952,93.238861 145.355606,86.753563 141.284683,80.867821 
	C138.367447,76.650101 139.550842,67.638710 144.349182,65.884140 
	C145.214584,65.567688 146.801910,65.967529 147.482697,66.627754 
	C150.057327,69.124626 152.395905,71.864899 154.791534,74.865204 
z"/>
<path fill="#6393F0" opacity="1.000000" stroke="none" 
	d="
M76.825035,134.816864 
	C74.271896,130.298065 70.502251,125.662697 69.391739,120.459770 
	C66.365746,106.282463 69.099976,93.072723 79.520561,81.925842 
	C78.434578,84.603340 77.084671,87.381584 75.587967,90.078354 
	C68.183273,103.420135 67.955956,116.806320 75.172585,130.300354 
	C75.868858,131.602280 76.278694,133.057373 76.825035,134.816864 
z"/>
<path fill="#6292F0" opacity="1.000000" stroke="none" 
	d="
M131.169968,42.090511 
	C133.022461,42.192402 135.064163,42.973022 137.086960,42.926792 
	C138.964798,42.883873 141.520081,42.550915 142.567200,41.318058 
	C146.900238,36.216465 146.554688,34.597755 140.140106,32.396042 
	C133.776642,30.211866 127.120842,28.879320 120.309647,26.920954 
	C129.423645,25.803253 137.853500,29.019764 146.029419,33.049686 
	C146.837601,33.448044 147.626984,35.555267 147.269348,36.347748 
	C145.985641,39.192238 144.443848,42.006199 142.487549,44.415997 
	C141.773666,45.295376 139.512497,45.484745 138.160751,45.154854 
	C135.807556,44.580559 133.612350,43.358822 131.169968,42.090511 
z"/>
<path fill="#9BB9F5" opacity="1.000000" stroke="none" 
	d="
M162.734985,160.143707 
	C159.763245,163.421265 156.816116,167.242874 153.080658,169.994186 
	C144.007126,176.677155 133.866348,181.037537 122.023872,181.710999 
	C125.213615,180.454529 128.807678,179.304626 132.440659,178.294785 
	C144.117477,175.049026 153.555969,168.122086 162.734985,160.143707 
z"/>
<path fill="#A9C3F6" opacity="1.000000" stroke="none" 
	d="
M178.302307,160.892822 
	C181.648209,153.382996 186.001053,146.052338 188.788574,138.168228 
	C190.915924,132.151337 191.060013,125.433250 191.979828,118.667969 
	C196.225174,117.684639 194.941971,121.033669 194.695206,122.872673 
	C193.335632,133.005142 190.074768,142.554703 184.920258,151.394363 
	C183.019531,154.654007 180.741776,157.693832 178.302307,160.892822 
z"/>
<path fill="#6292F0" opacity="1.000000" stroke="none" 
	d="
M102.651558,26.501497 
	C99.033417,27.738005 94.902229,28.312679 91.206261,29.900425 
	C81.878876,33.907360 72.747429,38.370403 63.187572,42.686981 
	C65.897766,40.385273 68.758186,37.706539 72.055931,35.774090 
	C81.387436,30.305937 91.425270,26.842384 102.651558,26.501497 
z"/>
<path fill="#98B7F4" opacity="1.000000" stroke="none" 
	d="
M159.522552,139.124863 
	C160.898727,134.212585 162.761765,129.266312 164.295929,124.220039 
	C167.076675,115.073524 166.263306,105.829552 164.792603,96.303635 
	C165.580780,97.132767 166.634262,98.206879 166.780060,99.392601 
	C168.489563,113.293816 167.739426,126.802719 159.522552,139.124863 
z"/>
<path fill="#9BB9F5" opacity="1.000000" stroke="none" 
	d="
M102.141968,181.294235 
	C96.021568,180.137207 89.210831,179.692566 83.416977,177.032806 
	C76.795319,173.993027 71.078232,168.982773 64.926056,164.493042 
	C69.886475,167.311066 74.608322,171.101273 79.960785,173.461136 
	C87.014961,176.571289 94.564354,178.558228 102.141968,181.294235 
z"/>
<path fill="#98B7F4" opacity="1.000000" stroke="none" 
	d="
M62.406143,85.859177 
	C61.459103,90.608620 59.517498,95.428093 59.078091,100.380829 
	C58.428101,107.707169 58.844944,115.128151 58.672165,122.953735 
	C57.878490,122.293221 56.794495,121.248238 56.627705,120.073074 
	C54.938236,108.169609 56.012943,96.668274 62.406143,85.859177 
z"/>
<path fill="#6E9AF1" opacity="1.000000" stroke="none" 
	d="
M45.979351,59.993568 
	C41.109398,70.151169 36.239441,80.308769 31.128477,90.732788 
	C32.348061,85.687790 33.226364,80.118965 35.429226,75.135666 
	C37.739120,69.910240 41.319599,65.246490 44.887817,60.155075 
	C45.613693,59.979790 45.796524,59.986679 45.979351,59.993568 
z"/>
<path fill="#9BB9F5" opacity="1.000000" stroke="none" 
	d="
M179.339996,132.809753 
	C177.382202,143.542542 171.974060,152.590881 163.424713,160.038086 
	C166.614334,154.725861 170.315628,149.489624 173.614624,144.011154 
	C175.724228,140.507828 177.239334,136.646545 179.339996,132.809753 
z"/>
<path fill="#6695F0" opacity="1.000000" stroke="none" 
	d="
M132.319733,192.480835 
	C134.714432,191.148346 137.448410,190.105072 140.072647,188.835068 
	C146.141525,185.898010 152.157272,182.851120 158.561310,179.884644 
	C151.514069,186.975342 142.522858,190.773590 132.319733,192.480835 
z"/>
<path fill="#98B7F4" opacity="1.000000" stroke="none" 
	d="
M71.175064,148.219177 
	C73.732964,149.899063 76.101318,152.245331 78.887291,153.879745 
	C84.815010,157.357330 90.959740,160.465027 97.148323,164.028015 
	C86.499168,162.518799 78.020256,156.893021 71.175064,148.219177 
z"/>
<path fill="#588AEF" opacity="1.000000" stroke="none" 
	d="
M154.193420,113.240913 
	C155.444748,123.771484 150.680161,132.259109 143.292969,139.883163 
	C148.294846,131.832214 152.337601,123.184540 154.193420,113.240913 
z"/>
<path fill="#98B7F4" opacity="1.000000" stroke="none" 
	d="
M126.152786,164.613937 
	C128.081192,163.346664 130.502914,162.398422 132.660721,161.033081 
	C138.872986,157.102325 144.978638,153.003143 151.464630,148.926239 
	C147.423523,156.277954 139.999908,159.555649 132.666412,162.893372 
	C130.738342,163.770920 128.578812,164.139938 126.152786,164.613937 
z"/>
<path fill="#6191EF" opacity="1.000000" stroke="none" 
	d="
M192.639755,88.016182 
	C191.053497,85.149521 189.708862,81.830353 188.113434,78.636459 
	C185.451813,73.308151 182.629715,68.059998 179.906372,62.415871 
	C182.417053,65.652695 185.354385,69.027168 187.258270,72.908562 
	C189.553391,77.587555 190.971146,82.696915 192.639755,88.016182 
z"/>
<path fill="#9DBAF5" opacity="1.000000" stroke="none" 
	d="
M123.684174,56.016304 
	C116.219040,56.385380 108.466972,56.504211 100.375343,56.435009 
	C107.756905,52.879555 115.563019,53.639935 123.684174,56.016304 
z"/>
<path fill="#9BB9F5" opacity="1.000000" stroke="none" 
	d="
M65.234184,56.809258 
	C69.976425,49.687832 77.493500,46.214581 85.671524,43.493568 
	C79.154716,48.025993 72.366821,52.397820 65.234184,56.809258 
z"/>
<path fill="#98B7F4" opacity="1.000000" stroke="none" 
	d="
M100.291397,165.057129 
	C107.784752,164.650635 115.547035,164.518082 123.637939,164.574493 
	C116.248749,168.427811 108.429405,167.905319 100.291397,165.057129 
z"/>
<path fill="#9BB9F5" opacity="1.000000" stroke="none" 
	d="
M46.254440,83.808197 
	C47.411274,75.452705 52.097679,68.808449 58.593384,62.986176 
	C54.802296,69.837845 50.671906,76.728767 46.254440,83.808197 
z"/>
<path fill="#9BB9F5" opacity="1.000000" stroke="none" 
	d="
M58.919655,157.719376 
	C51.656410,153.050842 48.378185,145.460144 45.760315,137.274963 
	C50.249691,143.797668 54.591694,150.582779 58.919655,157.719376 
z"/>
<path fill="#588BEF" opacity="1.000000" stroke="none" 
	d="
M34.079811,142.276886 
	C36.775280,146.310532 39.453957,150.736893 42.171387,155.139328 
	C43.287678,156.947800 44.487514,158.704712 45.637383,160.828888 
	C39.227509,156.591660 36.674183,149.612640 34.079811,142.276886 
z"/>
<path fill="#588BEF" opacity="1.000000" stroke="none" 
	d="
M60.984245,177.438339 
	C67.104462,180.599762 73.285553,184.092606 79.727524,188.057007 
	C79.988808,188.700134 79.989220,188.871704 79.989632,189.043259 
	C73.674797,185.285431 67.359962,181.527603 60.984245,177.438339 
z"/>
<path fill="#588BEF" opacity="1.000000" stroke="none" 
	d="
M47.829033,164.580780 
	C52.169975,168.291595 56.492882,172.353638 60.855087,176.746826 
	C56.533253,173.029327 52.172123,168.980682 47.829033,164.580780 
z"/>
<path fill="#90B2F4" opacity="1.000000" stroke="none" 
	d="
M162.187378,43.388824 
	C156.563614,44.821960 154.171814,48.774319 156.079590,54.428127 
	C152.759720,54.061096 151.714142,52.272797 153.580673,49.142097 
	C154.676025,47.304890 155.593887,45.338894 156.866806,43.636650 
	C158.288025,41.736115 160.075485,40.639553 162.187378,43.388824 
z"/>
<path fill="#86AAF3" opacity="1.000000" stroke="none" 
	d="
M106.870209,153.654541 
	C100.534058,154.405960 95.025291,151.912231 89.784943,147.933899 
	C95.343468,149.532471 101.030067,151.433380 106.870209,153.654541 
z"/>
<path fill="#6191EF" opacity="1.000000" stroke="none" 
	d="
M171.156311,72.194115 
	C174.063004,77.364487 176.923141,82.902649 179.696564,88.814842 
	C176.776489,83.646545 173.943130,78.104225 171.156311,72.194115 
z"/>
<path fill="#6191EF" opacity="1.000000" stroke="none" 
	d="
M181.761703,102.286903 
	C185.692810,105.254211 189.786545,104.854172 194.358154,102.911331 
	C194.612793,103.493103 194.523254,104.940254 194.410095,104.942108 
	C190.291183,105.009445 186.168793,104.972473 182.053528,104.795479 
	C181.868454,104.787514 181.745178,103.342735 181.761703,102.286903 
z"/>
<path fill="#9DBAF5" opacity="1.000000" stroke="none" 
	d="
M128.647949,67.189423 
	C129.033295,64.912827 129.715927,62.478249 130.428925,59.935387 
	C128.980621,59.011246 127.504089,58.069099 125.897461,56.832176 
	C128.073227,57.451839 130.379089,58.366280 132.684952,59.280720 
	C131.438370,61.864292 130.191803,64.447861 128.647949,67.189423 
z"/>
<path fill="#9BB9F5" opacity="1.000000" stroke="none" 
	d="
M119.659401,181.496582 
	C114.891655,181.857941 109.761360,182.030594 104.298798,181.954056 
	C109.076645,181.572540 114.186745,181.440216 119.659401,181.496582 
z"/>
<path fill="#6292F0" opacity="1.000000" stroke="none" 
	d="
M60.602821,43.985809 
	C57.593410,47.348225 54.234394,50.729565 50.535728,54.145306 
	C53.548458,50.788052 56.900837,47.396393 60.602821,43.985809 
z"/>
<path fill="#A9C3F6" opacity="1.000000" stroke="none" 
	d="
M165.136734,174.103577 
	C168.478760,170.710358 171.820770,167.317154 175.506653,163.911057 
	C173.051361,167.106339 170.252228,170.314499 166.900467,173.754272 
	C165.944138,174.025116 165.540436,174.064346 165.136734,174.103577 
z"/>
<path fill="#9BB9F5" opacity="1.000000" stroke="none" 
	d="
M41.672142,116.745491 
	C41.346321,112.558395 41.170368,107.912857 41.287647,103.037277 
	C41.661255,107.300507 41.741634,111.793777 41.672142,116.745491 
z"/>
<path fill="#6E9AF1" opacity="1.000000" stroke="none" 
	d="
M30.366463,92.990410 
	C30.181610,96.662376 29.689890,100.513359 28.990341,104.680717 
	C29.208206,101.054535 29.633900,97.111984 30.366463,92.990410 
z"/>
<path fill="#98B7F4" opacity="1.000000" stroke="none" 
	d="
M63.091072,137.285477 
	C65.773804,140.328796 68.422180,143.733139 71.098785,147.481781 
	C68.436920,144.432877 65.746819,141.039688 63.091072,137.285477 
z"/>
<path fill="#6E9AF1" opacity="1.000000" stroke="none" 
	d="
M28.606888,117.338989 
	C29.507723,120.454239 30.209312,123.898163 30.786966,127.768234 
	C29.911236,124.685471 29.159439,121.176567 28.606888,117.338989 
z"/>
<path fill="#6393F0" opacity="1.000000" stroke="none" 
	d="
M77.663437,70.016464 
	C74.691635,72.254295 71.757790,74.152145 68.492691,76.117065 
	C70.121712,73.722656 71.946503,71.126366 74.152534,68.909447 
	C74.613258,68.446449 76.481674,69.384224 77.663437,70.016464 
z"/>
<path fill="#90B2F4" opacity="1.000000" stroke="none" 
	d="
M179.843658,61.778519 
	C176.935608,58.923389 174.063095,55.716537 171.203796,52.159870 
	C174.104401,55.015636 176.991791,58.221214 179.843658,61.778519 
z"/>
<path fill="#6695F0" opacity="1.000000" stroke="none" 
	d="
M120.038940,194.677750 
	C122.893440,193.773895 126.174553,193.041916 129.858200,192.463440 
	C126.995674,193.361176 123.730606,194.105408 120.038940,194.677750 
z"/>
<path fill="#6191EF" opacity="1.000000" stroke="none" 
	d="
M164.184052,63.190624 
	C166.507889,65.596855 168.879547,68.347466 171.222473,71.453255 
	C168.873123,69.050621 166.552490,66.292816 164.184052,63.190624 
z"/>
<path fill="#6292F0" opacity="1.000000" stroke="none" 
	d="
M119.982269,39.785984 
	C122.837227,39.990349 125.890251,40.482616 129.179474,41.241005 
	C126.337234,41.029385 123.258781,40.551636 119.982269,39.785984 
z"/>
<path fill="#6695F0" opacity="1.000000" stroke="none" 
	d="
M93.948715,192.918427 
	C96.810226,193.067383 99.882889,193.494522 103.186249,194.196304 
	C100.331245,194.046173 97.245560,193.621399 93.948715,192.918427 
z"/>
<path fill="#588AEF" opacity="1.000000" stroke="none" 
	d="
M160.024292,83.980743 
	C158.293884,81.295349 156.563461,78.609947 154.803101,75.578201 
	C156.848679,77.916443 158.924225,80.601036 160.747803,83.629456 
	C160.495850,83.973274 160.024307,83.980743 160.024292,83.980743 
z"/>
<path fill="#9BB9F5" opacity="1.000000" stroke="none" 
	d="
M41.932594,100.672867 
	C42.122486,98.027580 42.542366,95.085213 43.256050,91.968369 
	C43.087433,94.654518 42.625008,97.515160 41.932594,100.672867 
z"/>
<path fill="#6292F0" opacity="1.000000" stroke="none" 
	d="
M95.350739,41.547348 
	C97.510635,40.653961 99.976219,39.938690 102.836647,39.381409 
	C100.706474,40.268089 98.181450,40.996777 95.350739,41.547348 
z"/>
<path fill="#86AAF3" opacity="1.000000" stroke="none" 
	d="
M88.158951,146.416412 
	C85.513229,144.685196 82.799622,142.628555 80.107346,140.224533 
	C82.782806,141.948425 85.436928,144.019699 88.158951,146.416412 
z"/>
<path fill="#6393F0" opacity="1.000000" stroke="none" 
	d="
M80.184891,81.805466 
	C79.944130,79.468170 80.032196,77.080498 80.128860,74.303558 
	C84.538528,77.449730 84.576218,78.235237 80.184891,81.805466 
z"/>
<path fill="#A9C3F6" opacity="1.000000" stroke="none" 
	d="
M188.722626,118.139923 
	C186.909470,119.401894 184.697876,120.497116 182.193771,121.804070 
	C181.026627,115.877022 185.589691,118.377708 188.722626,118.139923 
z"/>
<path fill="#6E9AF1" opacity="1.000000" stroke="none" 
	d="
M30.704899,130.294678 
	C31.648094,132.479233 32.436214,134.951996 33.100914,137.712540 
	C32.168266,135.527847 31.359047,133.055359 30.704899,130.294678 
z"/>
<path fill="#477FED" opacity="1.000000" stroke="none" 
	d="
M106.996407,66.969978 
	C109.700264,66.941101 112.404121,66.912231 115.562439,67.167725 
	C116.011787,67.627419 116.006676,67.802757 116.001564,67.978096 
	C113.220642,68.138542 110.439720,68.298988 107.324112,67.984726 
	C106.991745,67.329994 106.994080,67.149986 106.996407,66.969978 
z"/>
<path fill="#9BB9F5" opacity="1.000000" stroke="none" 
	d="
M43.650593,128.808731 
	C42.808666,126.670860 42.082211,124.138000 41.558907,121.319229 
	C42.430061,123.493462 43.098064,125.953606 43.650593,128.808731 
z"/>
<path fill="#6695F0" opacity="1.000000" stroke="none" 
	d="
M164.905792,174.344879 
	C165.540436,174.064346 165.944138,174.025116 166.652100,173.975708 
	C164.515762,175.967957 162.075165,177.970398 159.279617,179.947754 
	C160.841400,178.143829 162.758118,176.364990 164.905792,174.344879 
z"/>
<path fill="#6191EF" opacity="1.000000" stroke="none" 
	d="
M194.700378,97.975494 
	C193.848312,95.785873 193.148315,93.185516 192.602783,90.287796 
	C193.455673,92.515205 194.154053,95.039986 194.700378,97.975494 
z"/>
<path fill="#98B7F4" opacity="1.000000" stroke="none" 
	d="
M153.125214,147.636093 
	C154.483841,145.334763 156.175339,143.073090 158.196213,140.784500 
	C156.836411,143.063629 155.147247,145.369675 153.125214,147.636093 
z"/>
<path fill="#90B2F4" opacity="1.000000" stroke="none" 
	d="
M156.248230,55.171543 
	C158.392502,56.712597 160.583115,58.587048 162.811554,60.809311 
	C160.664429,59.273064 158.479492,57.389000 156.248230,55.171543 
z"/>
<path fill="#6695F0" opacity="1.000000" stroke="none" 
	d="
M84.914597,190.593994 
	C87.066902,190.754623 89.277985,191.262085 91.731522,192.054230 
	C89.640442,191.872879 87.306908,191.406845 84.914597,190.593994 
z"/>
<path fill="#98B7F4" opacity="1.000000" stroke="none" 
	d="
M67.543274,76.928391 
	C66.537003,79.226974 65.203613,81.605461 63.540241,84.052589 
	C64.545555,81.750252 65.880852,79.379272 67.543274,76.928391 
z"/>
<path fill="#99B8F5" opacity="1.000000" stroke="none" 
	d="
M138.244415,145.406311 
	C135.979904,146.891525 133.715378,148.376740 131.095703,149.810181 
	C132.635086,148.284958 134.529617,146.811508 137.033112,145.277008 
	C137.842850,145.279404 138.043625,145.342850 138.244415,145.406311 
z"/>
<path fill="#6191EF" opacity="1.000000" stroke="none" 
	d="
M179.710342,91.293793 
	C180.539322,93.145729 181.207962,95.280647 181.752579,97.796936 
	C180.935715,95.977798 180.242859,93.777283 179.710342,91.293793 
z"/>
<path fill="#9DBAF5" opacity="1.000000" stroke="none" 
	d="
M116.405609,68.011124 
	C116.006676,67.802757 116.011787,67.627419 116.012772,67.188995 
	C118.304688,67.305504 120.600723,67.685089 123.028114,68.370316 
	C121.042870,68.465363 118.926254,68.254753 116.405609,68.011124 
z"/>
<path fill="#9DBAF5" opacity="1.000000" stroke="none" 
	d="
M97.849319,56.386551 
	C96.339844,57.340466 94.463562,58.161919 92.280975,58.848915 
	C93.810616,57.894333 95.646561,57.074211 97.849319,56.386551 
z"/>
<path fill="#6292F0" opacity="1.000000" stroke="none" 
	d="
M87.075073,43.778072 
	C88.663147,42.895592 90.613640,42.150585 92.909805,41.530052 
	C91.316139,42.408195 89.376816,43.161869 87.075073,43.778072 
z"/>
<path fill="#6292F0" opacity="1.000000" stroke="none" 
	d="
M109.306488,39.451694 
	C110.820724,39.116566 112.617706,38.985554 114.699860,39.053646 
	C113.186432,39.387104 111.387833,39.521458 109.306488,39.451694 
z"/>
<path fill="#A9C3F6" opacity="1.000000" stroke="none" 
	d="
M181.465576,123.937828 
	C181.412445,125.701828 181.078003,127.698280 180.409103,129.865463 
	C180.444519,128.080887 180.814392,126.125587 181.465576,123.937828 
z"/>
<path fill="#98B7F4" opacity="1.000000" stroke="none" 
	d="
M164.777542,93.807297 
	C163.963684,92.622414 163.251663,91.083008 162.673996,89.283623 
	C163.498703,90.500015 164.189041,91.976395 164.777542,93.807297 
z"/>
<path fill="#98B7F4" opacity="1.000000" stroke="none" 
	d="
M58.605942,125.247452 
	C59.430855,126.542046 60.103806,128.101257 60.659683,130.029083 
	C59.846405,128.769165 59.150188,127.140610 58.605942,125.247452 
z"/>
<path fill="#9DBAF5" opacity="1.000000" stroke="none" 
	d="
M92.810394,68.499542 
	C94.357391,68.396141 95.895721,68.647064 97.801682,69.037781 
	C96.208244,71.919754 94.433136,71.578285 92.810394,68.499542 
z"/>
<path fill="#9DBAF5" opacity="1.000000" stroke="none" 
	d="
M106.727608,66.806877 
	C106.994080,67.149986 106.991745,67.329994 106.995804,67.779984 
	C105.193619,68.322830 103.385048,68.595711 101.201408,68.751495 
	C102.703827,67.970863 104.581314,67.307320 106.727608,66.806877 
z"/>
<path fill="#9BB9F5" opacity="1.000000" stroke="none" 
	d="
M44.118973,89.787323 
	C44.218365,88.633270 44.611187,87.285728 45.301620,85.871765 
	C45.203621,87.068176 44.808014,88.331009 44.118973,89.787323 
z"/>
<path fill="#90B2F4" opacity="1.000000" stroke="none" 
	d="
M167.071350,47.557835 
	C165.710876,46.873310 164.314835,45.857456 162.902451,44.500835 
	C164.269333,45.182213 165.652557,46.204357 167.071350,47.557835 
z"/>
<path fill="#90B2F4" opacity="1.000000" stroke="none" 
	d="
M171.161575,51.449028 
	C169.830627,50.717384 168.471527,49.652042 167.111206,48.239449 
	C168.451126,48.966572 169.792282,50.040951 171.161575,51.449028 
z"/>
<path fill="#9BB9F5" opacity="1.000000" stroke="none" 
	d="
M45.696671,134.845825 
	C44.893272,133.952576 44.182011,132.718994 43.653675,131.254761 
	C44.487339,132.184570 45.138073,133.345032 45.696671,134.845825 
z"/>
<path fill="#86AAF3" opacity="1.000000" stroke="none" 
	d="
M119.811302,153.018494 
	C118.879448,153.637131 117.778595,153.987289 116.343643,154.173813 
	C117.220474,153.590118 118.431389,153.170059 119.811302,153.018494 
z"/>
<path fill="#9DBAF5" opacity="1.000000" stroke="none" 
	d="
M89.844101,64.432983 
	C90.787338,64.995262 91.696327,65.898369 92.529968,67.146767 
	C91.573036,66.585968 90.691444,65.679893 89.844101,64.432983 
z"/>
<path fill="#98B7F4" opacity="1.000000" stroke="none" 
	d="
M60.770645,132.218536 
	C61.563335,132.861740 62.215191,133.729294 62.797333,134.934937 
	C62.028351,134.329651 61.329082,133.386276 60.770645,132.218536 
z"/>
<path fill="#6292F0" opacity="1.000000" stroke="none" 
	d="
M46.197617,59.758713 
	C45.796524,59.986679 45.613693,59.979790 45.156624,59.958542 
	C45.659637,58.967743 46.436897,57.991291 47.527603,56.952057 
	C47.365990,57.767471 46.890934,58.645668 46.197617,59.758713 
z"/>
<path fill="#6695F0" opacity="1.000000" stroke="none" 
	d="
M80.313629,189.185425 
	C79.989220,188.871704 79.988808,188.700134 79.991501,188.271240 
	C81.262085,188.457306 82.529587,188.900696 83.907547,189.664276 
	C82.891212,189.765518 81.764427,189.546555 80.313629,189.185425 
z"/>
<path fill="#6292F0" opacity="1.000000" stroke="none" 
	d="
M49.859230,54.231049 
	C49.621948,55.015194 49.057579,55.836540 48.181259,56.743000 
	C48.423584,55.974827 48.977863,55.121536 49.859230,54.231049 
z"/>
<path fill="#98B7F4" opacity="1.000000" stroke="none" 
	d="
M160.026443,84.311562 
	C160.024307,83.980743 160.495850,83.973274 160.730103,84.000183 
	C161.287399,84.829201 161.610458,85.631302 161.895813,86.763016 
	C161.248276,86.275879 160.638428,85.459129 160.026443,84.311562 
z"/>
<path fill="#9DBAF5" opacity="1.000000" stroke="none" 
	d="
M90.187576,59.067005 
	C89.990555,59.830734 89.449005,60.543201 88.597977,61.312542 
	C88.288506,61.369419 88.097000,61.797737 88.006393,61.376633 
	C87.960663,60.650967 88.005524,60.346405 88.050385,60.041847 
	C88.647942,59.699814 89.245499,59.357777 90.187576,59.067005 
z"/>
<path fill="#6393F0" opacity="1.000000" stroke="none" 
	d="
M79.837646,72.871567 
	C79.189026,72.690849 78.565323,72.180992 77.948074,71.352303 
	C78.590530,71.536461 79.226540,72.039436 79.837646,72.871567 
z"/>
<path fill="#477FED" opacity="1.000000" stroke="none" 
	d="
M124.958794,69.530563 
	C125.376396,69.148598 125.846329,69.017090 126.673782,68.982086 
	C126.357903,69.312737 125.684517,69.546883 124.958794,69.530563 
z"/>
<path fill="#588BEF" opacity="1.000000" stroke="none" 
	d="
M45.978333,162.333008 
	C46.598129,162.515182 47.210190,163.010605 47.807655,163.817810 
	C47.185577,163.635147 46.578091,163.140686 45.978333,162.333008 
z"/>
<path fill="#A9C3F6" opacity="1.000000" stroke="none" 
	d="
M176.186249,163.788025 
	C176.246674,163.201859 176.602631,162.563431 177.247162,161.870483 
	C177.184402,162.455902 176.833084,163.095840 176.186249,163.788025 
z"/>
<path fill="#9BB9F5" opacity="1.000000" stroke="none" 
	d="
M64.838974,163.798874 
	C64.198166,163.680298 63.549431,163.251541 62.877499,162.513367 
	C63.513214,162.632202 64.172119,163.060455 64.838974,163.798874 
z"/>
<path fill="#9BB9F5" opacity="1.000000" stroke="none" 
	d="
M59.261414,62.896530 
	C59.353077,62.269730 59.761379,61.608238 60.477436,60.900894 
	C60.382805,61.523979 59.980427,62.192909 59.261414,62.896530 
z"/>
<path fill="#9BB9F5" opacity="1.000000" stroke="none" 
	d="
M62.816879,161.811707 
	C62.172047,161.691940 61.535851,161.255249 60.878010,160.511414 
	C61.512749,160.634445 62.169128,161.064621 62.816879,161.811707 
z"/>
<path fill="#9BB9F5" opacity="1.000000" stroke="none" 
	d="
M60.794823,159.821686 
	C60.178051,159.663742 59.556755,159.192200 58.929211,158.408691 
	C59.545406,158.567184 60.167850,159.037628 60.794823,159.821686 
z"/>
<path fill="#9BB9F5" opacity="1.000000" stroke="none" 
	d="
M63.197388,58.800819 
	C63.335350,58.210709 63.786903,57.582821 64.547493,56.925461 
	C64.408020,57.518341 63.959503,58.140694 63.197388,58.800819 
z"/>
<path fill="#9BB9F5" opacity="1.000000" stroke="none" 
	d="
M61.160042,60.746605 
	C61.307899,60.160542 61.769104,59.547722 62.538078,58.911999 
	C62.388359,59.499344 61.930870,60.109592 61.160042,60.746605 
z"/>
<path fill="#588AEF" opacity="1.000000" stroke="none" 
	d="
M138.465302,145.198029 
	C138.043625,145.342850 137.842850,145.279404 137.339172,145.126495 
	C137.619904,144.463684 138.203522,143.890320 139.111328,143.356140 
	C139.185730,143.926773 138.935959,144.458252 138.465302,145.198029 
z"/>
<path fill="#477FED" opacity="1.000000" stroke="none" 
	d="
M87.826790,60.071754 
	C88.005524,60.346405 87.960663,60.650967 87.772514,61.394844 
	C87.620552,61.256660 87.611877,60.679161 87.826790,60.071754 
z"/>
<path fill="#588AEF" opacity="1.000000" stroke="none" 
	d="
M142.632568,140.035553 
	C142.568146,140.692917 142.193710,141.428497 141.476440,142.171341 
	C141.529938,141.490326 141.926239,140.802048 142.632568,140.035553 
z"/>
<path fill="#86AAF3" opacity="1.000000" stroke="none" 
	d="
M79.741142,138.876923 
	C79.100250,138.727264 78.473343,138.262634 77.853630,137.483109 
	C78.492256,137.632797 79.123695,138.097382 79.741142,138.876923 
z"/>
</svg>